<svg width="68" height="40" viewBox="0 0 68 40" fill="none" xmlns="http://www.w3.org/2000/svg">
<path d="M1.368 9V0.599999H2.256V8.232H6.96V9H1.368ZM10.6567 9.072C10.0327 9.072 9.43266 8.972 8.85666 8.772C8.28866 8.564 7.84866 8.3 7.53666 7.98L7.88466 7.296C8.18066 7.584 8.57666 7.828 9.07266 8.028C9.57666 8.22 10.1047 8.316 10.6567 8.316C11.1847 8.316 11.6127 8.252 11.9407 8.124C12.2767 7.988 12.5207 7.808 12.6727 7.584C12.8327 7.36 12.9127 7.112 12.9127 6.84C12.9127 6.512 12.8167 6.248 12.6247 6.048C12.4407 5.848 12.1967 5.692 11.8927 5.58C11.5887 5.46 11.2527 5.356 10.8847 5.268C10.5167 5.18 10.1487 5.088 9.78066 4.992C9.41266 4.888 9.07266 4.752 8.76066 4.584C8.45666 4.416 8.20866 4.196 8.01666 3.924C7.83266 3.644 7.74066 3.28 7.74066 2.832C7.74066 2.416 7.84866 2.036 8.06466 1.692C8.28866 1.34 8.62866 1.06 9.08466 0.852C9.54066 0.636 10.1247 0.528 10.8367 0.528C11.3087 0.528 11.7767 0.596 12.2407 0.732C12.7047 0.86 13.1047 1.04 13.4407 1.272L13.1407 1.98C12.7807 1.74 12.3967 1.564 11.9887 1.452C11.5887 1.34 11.2007 1.284 10.8247 1.284C10.3207 1.284 9.90466 1.352 9.57666 1.488C9.24866 1.624 9.00466 1.808 8.84466 2.04C8.69266 2.264 8.61666 2.52 8.61666 2.808C8.61666 3.136 8.70866 3.4 8.89266 3.6C9.08466 3.8 9.33266 3.956 9.63666 4.068C9.94866 4.18 10.2887 4.28 10.6567 4.368C11.0247 4.456 11.3887 4.552 11.7487 4.656C12.1167 4.76 12.4527 4.896 12.7567 5.064C13.0687 5.224 13.3167 5.44 13.5007 5.712C13.6927 5.984 13.7887 6.34 13.7887 6.78C13.7887 7.188 13.6767 7.568 13.4527 7.92C13.2287 8.264 12.8847 8.544 12.4207 8.76C11.9647 8.968 11.3767 9.072 10.6567 9.072Z" fill=""/>
<path d="M5.4929 17.7827C5.45881 17.4389 5.3125 17.1719 5.05398 16.9815C4.79545 16.7912 4.4446 16.696 4.00142 16.696C3.70028 16.696 3.44602 16.7386 3.23864 16.8239C3.03125 16.9062 2.87216 17.0213 2.76136 17.169C2.65341 17.3168 2.59943 17.4844 2.59943 17.6719C2.59375 17.8281 2.62642 17.9645 2.69744 18.081C2.77131 18.1974 2.87216 18.2983 3 18.3835C3.12784 18.4659 3.27557 18.5384 3.44318 18.6009C3.6108 18.6605 3.78977 18.7116 3.98011 18.7543L4.7642 18.9418C5.14489 19.027 5.49432 19.1406 5.8125 19.2827C6.13068 19.4247 6.40625 19.5994 6.6392 19.8068C6.87216 20.0142 7.05256 20.2585 7.1804 20.5398C7.31108 20.821 7.37784 21.1435 7.38068 21.5071C7.37784 22.0412 7.24148 22.5043 6.97159 22.8963C6.70455 23.2855 6.31818 23.5881 5.8125 23.804C5.30966 24.017 4.70313 24.1236 3.9929 24.1236C3.28835 24.1236 2.67472 24.0156 2.15199 23.7997C1.6321 23.5838 1.22585 23.2642 0.933239 22.8409C0.643466 22.4148 0.491477 21.8878 0.477273 21.2599H2.26278C2.28267 21.5526 2.36648 21.7969 2.5142 21.9929C2.66477 22.1861 2.86506 22.3324 3.11506 22.4318C3.3679 22.5284 3.65341 22.5767 3.97159 22.5767C4.28409 22.5767 4.5554 22.5312 4.78551 22.4403C5.01847 22.3494 5.19886 22.223 5.3267 22.0611C5.45455 21.8991 5.51847 21.7131 5.51847 21.5028C5.51847 21.3068 5.46023 21.142 5.34375 21.0085C5.23011 20.875 5.0625 20.7614 4.84091 20.6676C4.62216 20.5739 4.35369 20.4886 4.03551 20.4119L3.08523 20.1733C2.34943 19.9943 1.76847 19.7145 1.34233 19.3338C0.916193 18.9531 0.704545 18.4403 0.707386 17.7955C0.704545 17.267 0.84517 16.8054 1.12926 16.4105C1.41619 16.0156 1.80966 15.7074 2.30966 15.4858C2.80966 15.2642 3.37784 15.1534 4.0142 15.1534C4.66193 15.1534 5.22727 15.2642 5.71023 15.4858C6.19602 15.7074 6.57386 16.0156 6.84375 16.4105C7.11364 16.8054 7.25284 17.2628 7.26136 17.7827H5.4929ZM16.6417 19.6364C16.6417 20.5881 16.4613 21.3977 16.1005 22.0653C15.7425 22.733 15.2539 23.2429 14.6346 23.5952C14.0181 23.9446 13.3249 24.1193 12.555 24.1193C11.7795 24.1193 11.0835 23.9432 10.467 23.5909C9.8505 23.2386 9.36328 22.7287 9.00533 22.0611C8.64737 21.3935 8.46839 20.5852 8.46839 19.6364C8.46839 18.6847 8.64737 17.875 9.00533 17.2074C9.36328 16.5398 9.8505 16.0312 10.467 15.6818C11.0835 15.3295 11.7795 15.1534 12.555 15.1534C13.3249 15.1534 14.0181 15.3295 14.6346 15.6818C15.2539 16.0312 15.7425 16.5398 16.1005 17.2074C16.4613 17.875 16.6417 18.6847 16.6417 19.6364ZM14.771 19.6364C14.771 19.0199 14.6786 18.5 14.494 18.0767C14.3121 17.6534 14.055 17.3324 13.7227 17.1136C13.3903 16.8949 13.0011 16.7855 12.555 16.7855C12.109 16.7855 11.7198 16.8949 11.3874 17.1136C11.055 17.3324 10.7965 17.6534 10.6119 18.0767C10.43 18.5 10.3391 19.0199 10.3391 19.6364C10.3391 20.2528 10.43 20.7727 10.6119 21.196C10.7965 21.6193 11.055 21.9403 11.3874 22.1591C11.7198 22.3778 12.109 22.4872 12.555 22.4872C13.0011 22.4872 13.3903 22.3778 13.7227 22.1591C14.055 21.9403 14.3121 21.6193 14.494 21.196C14.6786 20.7727 14.771 20.2528 14.771 19.6364ZM18.0085 24V15.2727H23.7869V16.794H19.8537V18.8736H23.4034V20.3949H19.8537V24H18.0085ZM24.6957 16.794V15.2727H31.8633V16.794H29.1914V24H27.3675V16.794H24.6957ZM35.0082 24L32.511 15.2727H34.5266L35.9712 21.3366H36.0437L37.6374 15.2727H39.3633L40.9528 21.3494H41.0295L42.4741 15.2727H44.4897L41.9925 24H40.1942L38.5323 18.294H38.4641L36.8065 24H35.0082ZM46.1026 24H44.1254L47.1381 15.2727H49.516L52.5245 24H50.5472L48.3612 17.267H48.293L46.1026 24ZM45.979 20.5696H50.6495V22.0099H45.979V20.5696ZM53.5749 24V15.2727H57.0181C57.6772 15.2727 58.2397 15.3906 58.7056 15.6264C59.1744 15.8594 59.5309 16.1903 59.7752 16.6193C60.0224 17.0455 60.146 17.5469 60.146 18.1236C60.146 18.7031 60.021 19.2017 59.771 19.6193C59.521 20.0341 59.1587 20.3523 58.6843 20.5739C58.2127 20.7955 57.6417 20.9062 56.9712 20.9062H54.6658V19.4233H56.6729C57.0252 19.4233 57.3178 19.375 57.5508 19.2784C57.7837 19.1818 57.957 19.0369 58.0707 18.8438C58.1871 18.6506 58.2454 18.4105 58.2454 18.1236C58.2454 17.8338 58.1871 17.5895 58.0707 17.3906C57.957 17.1918 57.7823 17.0412 57.5465 16.9389C57.3136 16.8338 57.0195 16.7812 56.6644 16.7812H55.4201V24H53.5749ZM58.288 20.0284L60.457 24H58.4201L56.2979 20.0284H58.288ZM61.4499 24V15.2727H67.3306V16.794H63.2951V18.8736H67.0281V20.3949H63.2951V22.4787H67.3477V24H61.4499Z" fill="none"/>
<path d="M5.4929 32.7827C5.45881 32.4389 5.3125 32.1719 5.05398 31.9815C4.79545 31.7912 4.4446 31.696 4.00142 31.696C3.70028 31.696 3.44602 31.7386 3.23864 31.8239C3.03125 31.9062 2.87216 32.0213 2.76136 32.169C2.65341 32.3168 2.59943 32.4844 2.59943 32.6719C2.59375 32.8281 2.62642 32.9645 2.69744 33.081C2.77131 33.1974 2.87216 33.2983 3 33.3835C3.12784 33.4659 3.27557 33.5384 3.44318 33.6009C3.6108 33.6605 3.78977 33.7116 3.98011 33.7543L4.7642 33.9418C5.14489 34.027 5.49432 34.1406 5.8125 34.2827C6.13068 34.4247 6.40625 34.5994 6.6392 34.8068C6.87216 35.0142 7.05256 35.2585 7.1804 35.5398C7.31108 35.821 7.37784 36.1435 7.38068 36.5071C7.37784 37.0412 7.24148 37.5043 6.97159 37.8963C6.70455 38.2855 6.31818 38.5881 5.8125 38.804C5.30966 39.017 4.70313 39.1236 3.9929 39.1236C3.28835 39.1236 2.67472 39.0156 2.15199 38.7997C1.6321 38.5838 1.22585 38.2642 0.933239 37.8409C0.643466 37.4148 0.491477 36.8878 0.477273 36.2599H2.26278C2.28267 36.5526 2.36648 36.7969 2.5142 36.9929C2.66477 37.1861 2.86506 37.3324 3.11506 37.4318C3.3679 37.5284 3.65341 37.5767 3.97159 37.5767C4.28409 37.5767 4.5554 37.5312 4.78551 37.4403C5.01847 37.3494 5.19886 37.223 5.3267 37.0611C5.45455 36.8991 5.51847 36.7131 5.51847 36.5028C5.51847 36.3068 5.46023 36.142 5.34375 36.0085C5.23011 35.875 5.0625 35.7614 4.84091 35.6676C4.62216 35.5739 4.35369 35.4886 4.03551 35.4119L3.08523 35.1733C2.34943 34.9943 1.76847 34.7145 1.34233 34.3338C0.916193 33.9531 0.704545 33.4403 0.707386 32.7955C0.704545 32.267 0.84517 31.8054 1.12926 31.4105C1.41619 31.0156 1.80966 30.7074 2.30966 30.4858C2.80966 30.2642 3.37784 30.1534 4.0142 30.1534C4.66193 30.1534 5.22727 30.2642 5.71023 30.4858C6.19602 30.7074 6.57386 31.0156 6.84375 31.4105C7.11364 31.8054 7.25284 32.2628 7.26136 32.7827H5.4929ZM8.6218 39V30.2727H14.5025V31.794H10.467V33.8736H14.1999V35.3949H10.467V37.4787H14.5195V39H8.6218ZM15.9695 39V30.2727H19.4126C20.0717 30.2727 20.6342 30.3906 21.1001 30.6264C21.5689 30.8594 21.9254 31.1903 22.1697 31.6193C22.4169 32.0455 22.5405 32.5469 22.5405 33.1236C22.5405 33.7031 22.4155 34.2017 22.1655 34.6193C21.9155 35.0341 21.5533 35.3523 21.0788 35.5739C20.6072 35.7955 20.0362 35.9062 19.3658 35.9062H17.0604V34.4233H19.0675C19.4197 34.4233 19.7124 34.375 19.9453 34.2784C20.1783 34.1818 20.3516 34.0369 20.4652 33.8438C20.5817 33.6506 20.6399 33.4105 20.6399 33.1236C20.6399 32.8338 20.5817 32.5895 20.4652 32.3906C20.3516 32.1918 20.1768 32.0412 19.9411 31.9389C19.7081 31.8338 19.4141 31.7812 19.0589 31.7812H17.8146V39H15.9695ZM20.6825 35.0284L22.8516 39H20.8146L18.6925 35.0284H20.6825ZM25.1868 30.2727L27.2962 36.9034H27.3771L29.4908 30.2727H31.5362L28.5277 39H26.1499L23.1371 30.2727H25.1868ZM34.4318 30.2727V39H32.5866V30.2727H34.4318ZM43.6502 33.3281H41.7837C41.7496 33.0866 41.68 32.8722 41.5749 32.6847C41.4698 32.4943 41.3349 32.3324 41.1701 32.1989C41.0053 32.0653 40.815 31.9631 40.5991 31.892C40.386 31.821 40.1545 31.7855 39.9045 31.7855C39.4528 31.7855 39.0593 31.8977 38.7241 32.1222C38.3888 32.3437 38.1289 32.6676 37.9442 33.0938C37.7596 33.517 37.6673 34.0312 37.6673 34.6364C37.6673 35.2585 37.7596 35.7812 37.9442 36.2045C38.1317 36.6278 38.3931 36.9474 38.7283 37.1634C39.0636 37.3793 39.4513 37.4872 39.8917 37.4872C40.1388 37.4872 40.3675 37.4545 40.5778 37.3892C40.7908 37.3239 40.9798 37.2287 41.1445 37.1037C41.3093 36.9759 41.4457 36.821 41.5536 36.6392C41.6644 36.4574 41.7411 36.25 41.7837 36.017L43.6502 36.0256C43.6019 36.4261 43.4812 36.8125 43.288 37.1847C43.0977 37.554 42.8406 37.8849 42.5167 38.1776C42.1957 38.4673 41.8121 38.6974 41.3661 38.8679C40.9229 39.0355 40.4215 39.1193 39.8619 39.1193C39.0835 39.1193 38.3874 38.9432 37.7738 38.5909C37.163 38.2386 36.68 37.7287 36.3249 37.0611C35.9727 36.3935 35.7965 35.5852 35.7965 34.6364C35.7965 33.6847 35.9755 32.875 36.3335 32.2074C36.6914 31.5398 37.1772 31.0312 37.7908 30.6818C38.4045 30.3295 39.0948 30.1534 39.8619 30.1534C40.3675 30.1534 40.8363 30.2244 41.2681 30.3665C41.7028 30.5085 42.0877 30.7159 42.4229 30.9886C42.7582 31.2585 43.0309 31.5895 43.2411 31.9815C43.4542 32.3736 43.5906 32.8224 43.6502 33.3281ZM44.9734 39V30.2727H50.854V31.794H46.8185V33.8736H50.5515V35.3949H46.8185V37.4787H50.8711V39H44.9734ZM57.0554 32.7827C57.0213 32.4389 56.875 32.1719 56.6165 31.9815C56.358 31.7912 56.0071 31.696 55.5639 31.696C55.2628 31.696 55.0085 31.7386 54.8011 31.8239C54.5938 31.9062 54.4347 32.0213 54.3239 32.169C54.2159 32.3168 54.1619 32.4844 54.1619 32.6719C54.1563 32.8281 54.1889 32.9645 54.2599 33.081C54.3338 33.1974 54.4347 33.2983 54.5625 33.3835C54.6903 33.4659 54.8381 33.5384 55.0057 33.6009C55.1733 33.6605 55.3523 33.7116 55.5426 33.7543L56.3267 33.9418C56.7074 34.027 57.0568 34.1406 57.375 34.2827C57.6932 34.4247 57.9688 34.5994 58.2017 34.8068C58.4347 35.0142 58.6151 35.2585 58.7429 35.5398C58.8736 35.821 58.9403 36.1435 58.9432 36.5071C58.9403 37.0412 58.804 37.5043 58.5341 37.8963C58.267 38.2855 57.8807 38.5881 57.375 38.804C56.8722 39.017 56.2656 39.1236 55.5554 39.1236C54.8509 39.1236 54.2372 39.0156 53.7145 38.7997C53.1946 38.5838 52.7884 38.2642 52.4957 37.8409C52.206 37.4148 52.054 36.8878 52.0398 36.2599H53.8253C53.8452 36.5526 53.929 36.7969 54.0767 36.9929C54.2273 37.1861 54.4276 37.3324 54.6776 37.4318C54.9304 37.5284 55.2159 37.5767 55.5341 37.5767C55.8466 37.5767 56.1179 37.5312 56.348 37.4403C56.581 37.3494 56.7614 37.223 56.8892 37.0611C57.017 36.8991 57.081 36.7131 57.081 36.5028C57.081 36.3068 57.0227 36.142 56.9062 36.0085C56.7926 35.875 56.625 35.7614 56.4034 35.6676C56.1847 35.5739 55.9162 35.4886 55.598 35.4119L54.6477 35.1733C53.9119 34.9943 53.331 34.7145 52.9048 34.3338C52.4787 33.9531 52.267 33.4403 52.2699 32.7955C52.267 32.267 52.4077 31.8054 52.6918 31.4105C52.9787 31.0156 53.3722 30.7074 53.8722 30.4858C54.3722 30.2642 54.9403 30.1534 55.5767 30.1534C56.2244 30.1534 56.7898 30.2642 57.2727 30.4858C57.7585 30.7074 58.1364 31.0156 58.4062 31.4105C58.6761 31.8054 58.8153 32.2628 58.8239 32.7827H57.0554Z" fill="#2DB9F4"/>
<path d="M1.368 9H0.868V9.5H1.368V9ZM1.368 0.599999V0.0999994H0.868V0.599999H1.368ZM2.256 0.599999H2.756V0.0999994H2.256V0.599999ZM2.256 8.232H1.756V8.732H2.256V8.232ZM6.96 8.232H7.46V7.732H6.96V8.232ZM6.96 9V9.5H7.46V9H6.96ZM1.868 9V0.599999H0.868V9H1.868ZM1.368 1.1H2.256V0.0999994H1.368V1.1ZM1.756 0.599999V8.232H2.756V0.599999H1.756ZM2.256 8.732H6.96V7.732H2.256V8.732ZM6.46 8.232V9H7.46V8.232H6.46ZM6.96 8.5H1.368V9.5H6.96V8.5ZM8.85666 8.772L8.6847 9.24158L8.69265 9.24434L8.85666 8.772ZM7.53666 7.98L7.09102 7.75327L6.92857 8.07256L7.17866 8.32905L7.53666 7.98ZM7.88466 7.296L8.23333 6.93764L7.74682 6.46427L7.43902 7.06927L7.88466 7.296ZM9.07266 8.028L8.88564 8.49181L8.89466 8.49524L9.07266 8.028ZM11.9407 8.124L12.1224 8.58983L12.1283 8.58747L11.9407 8.124ZM12.6727 7.584L12.2657 7.2933L12.2589 7.30325L12.6727 7.584ZM12.6247 6.048L12.2566 6.3866L12.264 6.39427L12.6247 6.048ZM11.8927 5.58L11.709 6.0452L11.7198 6.04917L11.8927 5.58ZM9.78066 4.992L9.64465 5.47325L9.65445 5.47581L9.78066 4.992ZM8.76066 4.584L8.5188 5.02165L8.52361 5.02424L8.76066 4.584ZM8.01666 3.924L7.5988 4.19859L7.60337 4.20554L7.60817 4.21234L8.01666 3.924ZM8.06466 1.692L7.64282 1.42356L7.64121 1.42612L8.06466 1.692ZM9.08466 0.852L9.29218 1.30696L9.2987 1.30387L9.08466 0.852ZM12.2407 0.732L12.1 1.21188L12.1077 1.214L12.2407 0.732ZM13.4407 1.272L13.901 1.46707L14.06 1.092L13.7248 0.860551L13.4407 1.272ZM13.1407 1.98L12.8633 2.39602L13.3655 2.73084L13.601 2.17507L13.1407 1.98ZM11.9887 1.452L11.8538 1.93349L11.8563 1.93416L11.9887 1.452ZM9.57666 1.488L9.38515 1.02613L9.38515 1.02613L9.57666 1.488ZM8.84466 2.04L8.43304 1.75612L8.43092 1.75925L8.84466 2.04ZM8.89266 3.6L8.52461 3.9386L8.53196 3.94627L8.89266 3.6ZM9.63666 4.068L9.4638 4.53719L9.46772 4.5386L9.63666 4.068ZM10.6567 4.368L10.5404 4.85429L10.5404 4.85429L10.6567 4.368ZM11.7487 4.656L11.6099 5.13636L11.6127 5.13715L11.7487 4.656ZM12.7567 5.064L12.5148 5.50162L12.5216 5.50537L12.5285 5.50891L12.7567 5.064ZM13.5007 5.712L13.0864 5.99221L13.0922 6.00034L13.5007 5.712ZM13.4527 7.92L13.8717 8.19285L13.8745 8.18844L13.4527 7.92ZM12.4207 8.76L12.6282 9.21492L12.6317 9.21329L12.4207 8.76ZM10.6567 8.572C10.0872 8.572 9.54268 8.48092 9.02066 8.29966L8.69265 9.24434C9.32263 9.46308 9.97815 9.572 10.6567 9.572V8.572ZM9.02859 8.30249C8.5073 8.11159 8.13937 7.88193 7.89466 7.63095L7.17866 8.32905C7.55795 8.71807 8.07002 9.01641 8.68472 9.24151L9.02859 8.30249ZM7.9823 8.20673L8.3303 7.52273L7.43902 7.06927L7.09102 7.75327L7.9823 8.20673ZM7.53598 7.65436C7.89004 7.99885 8.34639 8.27427 8.88567 8.49172L9.25964 7.56428C8.80692 7.38173 8.47127 7.16915 8.23333 6.93764L7.53598 7.65436ZM8.89466 8.49524C9.45685 8.70941 10.0453 8.816 10.6567 8.816V7.816C10.164 7.816 9.69646 7.73059 9.25065 7.56076L8.89466 8.49524ZM10.6567 8.816C11.2188 8.816 11.7151 8.74874 12.1224 8.58979L11.7589 7.65821C11.5102 7.75526 11.1505 7.816 10.6567 7.816V8.816ZM12.1283 8.58747C12.5256 8.42665 12.8628 8.19424 13.0864 7.86475L12.2589 7.30325C12.1785 7.42176 12.0277 7.54935 11.7531 7.66053L12.1283 8.58747ZM13.0795 7.87462C13.2993 7.56691 13.4127 7.21755 13.4127 6.84H12.4127C12.4127 7.00645 12.366 7.15309 12.2658 7.29338L13.0795 7.87462ZM13.4127 6.84C13.4127 6.40817 13.2828 6.01159 12.9853 5.70173L12.264 6.39427C12.3505 6.48441 12.4127 6.61583 12.4127 6.84H13.4127ZM12.9926 5.70947C12.7455 5.44084 12.4298 5.24503 12.0655 5.11083L11.7198 6.04917C11.9635 6.13897 12.1358 6.25516 12.2567 6.38653L12.9926 5.70947ZM12.0762 5.11492C11.7472 4.98505 11.3884 4.87435 11.0009 4.78171L10.7684 5.75429C11.1169 5.83765 11.4301 5.93495 11.7091 6.04508L12.0762 5.11492ZM11.0009 4.78171C10.6363 4.69451 10.2716 4.60333 9.90687 4.50819L9.65445 5.47581C10.0257 5.57266 10.397 5.66549 10.7684 5.75429L11.0009 4.78171ZM9.91663 4.51084C9.58097 4.41598 9.27519 4.29318 8.99771 4.14376L8.52361 5.02424C8.87012 5.21082 9.24434 5.36002 9.64468 5.47315L9.91663 4.51084ZM9.0025 4.14638C8.76167 4.01329 8.57169 3.84326 8.42514 3.63566L7.60817 4.21234C7.84563 4.54873 8.15164 4.81871 8.51881 5.02162L9.0025 4.14638ZM8.43451 3.64941C8.31939 3.47423 8.24066 3.21458 8.24066 2.832H7.24066C7.24066 3.34542 7.34592 3.81377 7.5988 4.19859L8.43451 3.64941ZM8.24066 2.832C8.24066 2.50767 8.32338 2.22022 8.4881 1.95788L7.64121 1.42612C7.37393 1.85178 7.24066 2.32433 7.24066 2.832H8.24066ZM8.48649 1.96044C8.64893 1.70517 8.90621 1.48295 9.29216 1.30691L8.87715 0.39709C8.3511 0.637045 7.92838 0.974829 7.64283 1.42356L8.48649 1.96044ZM9.2987 1.30387C9.66615 1.12981 10.1703 1.028 10.8367 1.028V0.0279996C10.079 0.0279996 9.41516 0.142187 8.87061 0.400131L9.2987 1.30387ZM10.8367 1.028C11.2599 1.028 11.6806 1.08887 12.1 1.21181L12.3813 0.252186C11.8727 0.103127 11.3574 0.0279996 10.8367 0.0279996V1.028ZM12.1077 1.214C12.5271 1.32971 12.874 1.48837 13.1566 1.68345L13.7248 0.860551C13.3353 0.591625 12.8822 0.390293 12.3736 0.250004L12.1077 1.214ZM12.9803 1.07692L12.6803 1.78492L13.601 2.17507L13.901 1.46707L12.9803 1.07692ZM13.418 1.56397C13.0145 1.295 12.5817 1.09631 12.121 0.969837L11.8563 1.93416C12.2116 2.03169 12.5468 2.185 12.8633 2.39602L13.418 1.56397ZM12.1235 0.970518C11.6841 0.847501 11.2507 0.784 10.8247 0.784V1.784C11.1506 1.784 11.4932 1.8325 11.8538 1.93348L12.1235 0.970518ZM10.8247 0.784C10.2804 0.784 9.79364 0.856754 9.38515 1.02613L9.76816 1.94987C10.0157 1.84725 10.3609 1.784 10.8247 1.784V0.784ZM9.38515 1.02613C8.9912 1.18947 8.66036 1.42654 8.43305 1.75613L9.25626 2.32387C9.34896 2.18946 9.50611 2.05853 9.76816 1.94987L9.38515 1.02613ZM8.43092 1.75925C8.21904 2.07149 8.11666 2.42663 8.11666 2.808H9.11666C9.11666 2.61337 9.16627 2.45651 9.25839 2.32075L8.43092 1.75925ZM8.11666 2.808C8.11666 3.23403 8.23891 3.62789 8.52469 3.93853L9.26062 3.26147C9.17841 3.17211 9.11666 3.03797 9.11666 2.808H8.11666ZM8.53196 3.94627C8.7846 4.20943 9.10062 4.40337 9.4638 4.53717L9.80951 3.59883C9.56469 3.50863 9.38471 3.39057 9.25335 3.25373L8.53196 3.94627ZM9.46772 4.5386C9.79918 4.65758 10.157 4.76261 10.5404 4.85429L10.7729 3.88171C10.4203 3.79739 10.0981 3.70242 9.80559 3.5974L9.46772 4.5386ZM10.5404 4.85429C10.9009 4.9405 11.2574 5.03453 11.6099 5.13636L11.8874 4.17564C11.5199 4.06947 11.1484 3.9715 10.7729 3.88171L10.5404 4.85429ZM11.6127 5.13715C11.9475 5.23178 12.2475 5.35389 12.5148 5.50162L12.9985 4.62638C12.6578 4.43811 12.2858 4.28822 11.8846 4.17485L11.6127 5.13715ZM12.5285 5.50891C12.7709 5.6332 12.9528 5.79456 13.0865 5.99215L13.9148 5.43185C13.6805 5.08544 13.3665 4.8148 12.9848 4.61909L12.5285 5.50891ZM13.0922 6.00034C13.2081 6.16462 13.2887 6.41041 13.2887 6.78H14.2887C14.2887 6.26959 14.1772 5.80338 13.9091 5.42366L13.0922 6.00034ZM13.2887 6.78C13.2887 7.09066 13.205 7.37787 13.0308 7.65156L13.8745 8.18844C14.1483 7.75813 14.2887 7.28534 14.2887 6.78H13.2887ZM13.0337 7.64716C12.872 7.89546 12.6096 8.1205 12.2096 8.30671L12.6317 9.21329C13.1597 8.9675 13.5853 8.63254 13.8717 8.19284L13.0337 7.64716ZM12.2132 8.30509C11.8443 8.47335 11.334 8.572 10.6567 8.572V9.572C11.4193 9.572 12.085 9.46265 12.6282 9.21491L12.2132 8.30509ZM5.4929 17.7827L4.99534 17.832L5.04003 18.2827H5.4929V17.7827ZM3.23864 16.8239L3.42325 17.2886L3.42869 17.2863L3.23864 16.8239ZM2.76136 17.169L2.36133 16.869L2.35767 16.874L2.76136 17.169ZM2.59943 17.6719L3.0991 17.69L3.09943 17.681V17.6719H2.59943ZM2.69744 18.081L2.27048 18.3413L2.27519 18.3487L2.69744 18.081ZM3 18.3835L2.72262 18.7996L2.72915 18.8038L3 18.3835ZM3.44318 18.6009L3.26847 19.0694L3.27552 19.0719L3.44318 18.6009ZM3.98011 18.7543L4.09641 18.2679L4.08935 18.2663L3.98011 18.7543ZM4.7642 18.9418L4.64791 19.4281L4.65497 19.4297L4.7642 18.9418ZM5.8125 19.2827L5.60867 19.7392L5.60867 19.7392L5.8125 19.2827ZM6.6392 19.8068L6.97167 19.4334L6.97167 19.4334L6.6392 19.8068ZM7.1804 20.5398L6.7252 20.7467L6.72696 20.7505L7.1804 20.5398ZM7.38068 21.5071L7.88072 21.5098L7.88067 21.5032L7.38068 21.5071ZM6.97159 22.8963L6.55974 22.6128L6.55931 22.6134L6.97159 22.8963ZM5.8125 23.804L6.00758 24.2644L6.00884 24.2638L5.8125 23.804ZM2.15199 23.7997L1.96022 24.2615L1.96111 24.2618L2.15199 23.7997ZM0.933239 22.8409L0.519763 23.1221L0.521944 23.1252L0.933239 22.8409ZM0.477273 21.2599V20.7599H-0.0341675L-0.0225994 21.2713L0.477273 21.2599ZM2.26278 21.2599L2.76163 21.226L2.72996 20.7599H2.26278V21.2599ZM2.5142 21.9929L2.11485 22.2939L2.11984 22.3003L2.5142 21.9929ZM3.11506 22.4318L2.93025 22.8965L2.93662 22.8989L3.11506 22.4318ZM4.78551 22.4403L4.60374 21.9745L4.6018 21.9753L4.78551 22.4403ZM5.3267 22.0611L5.71915 22.3709L5.71915 22.3709L5.3267 22.0611ZM5.34375 21.0085L4.96295 21.3326L4.96697 21.3372L5.34375 21.0085ZM4.84091 20.6676L4.64395 21.1272L4.64609 21.1281L4.84091 20.6676ZM4.03551 20.4119L3.91373 20.8969L3.91833 20.898L4.03551 20.4119ZM3.08523 20.1733L3.20701 19.6883L3.2034 19.6875L3.08523 20.1733ZM1.34233 19.3338L1.00922 19.7067L1.00922 19.7067L1.34233 19.3338ZM0.707386 17.7955L1.20741 17.7977L1.20738 17.7928L0.707386 17.7955ZM1.12926 16.4105L0.724763 16.1166L0.723384 16.1185L1.12926 16.4105ZM5.71023 15.4858L5.50172 15.9402L5.50272 15.9407L5.71023 15.4858ZM6.84375 16.4105L6.43095 16.6926L6.43095 16.6926L6.84375 16.4105ZM7.26136 17.7827V18.2827H7.76963L7.7613 17.7745L7.26136 17.7827ZM5.99046 17.7333C5.94358 17.2607 5.73239 16.8601 5.35043 16.5789L4.75753 17.3842C4.89261 17.4836 4.97403 17.6172 4.99534 17.832L5.99046 17.7333ZM5.35043 16.5789C4.97875 16.3052 4.51155 16.196 4.00142 16.196V17.196C4.37765 17.196 4.61216 17.2771 4.75753 17.3842L5.35043 16.5789ZM4.00142 16.196C3.65617 16.196 3.3331 16.2445 3.04858 16.3614L3.42869 17.2863C3.55894 17.2328 3.7444 17.196 4.00142 17.196V16.196ZM3.05404 16.3592C2.77897 16.4685 2.53795 16.6336 2.36136 16.869L3.16136 17.469C3.20637 17.409 3.28353 17.344 3.42323 17.2885L3.05404 16.3592ZM2.35767 16.874C2.18549 17.1096 2.09943 17.3811 2.09943 17.6719H3.09943C3.09943 17.5876 3.12132 17.5239 3.16506 17.464L2.35767 16.874ZM2.09976 17.6537C2.09105 17.8932 2.14133 18.1294 2.27055 18.3413L3.12434 17.8207C3.11151 17.7996 3.09645 17.7631 3.0991 17.69L2.09976 17.6537ZM2.27519 18.3487C2.39052 18.5306 2.54333 18.68 2.72265 18.7995L3.27735 17.9675C3.20098 17.9166 3.15209 17.8643 3.1197 17.8132L2.27519 18.3487ZM2.72915 18.8038C2.89195 18.9087 3.07291 18.9964 3.26849 19.0693L3.61787 18.1324C3.47823 18.0803 3.36373 18.0231 3.27085 17.9632L2.72915 18.8038ZM3.27552 19.0719C3.46397 19.139 3.6626 19.1956 3.87088 19.2422L4.08935 18.2663C3.91694 18.2277 3.75762 18.182 3.61084 18.1298L3.27552 19.0719ZM3.86383 19.2406L4.64792 19.4281L4.88049 18.4555L4.0964 18.268L3.86383 19.2406ZM4.65497 19.4297C5.00695 19.5085 5.32426 19.6123 5.60867 19.7392L6.01633 18.8261C5.66438 18.669 5.28282 18.5455 4.87344 18.4538L4.65497 19.4297ZM5.60867 19.7392C5.88539 19.8628 6.11635 20.0108 6.30674 20.1803L6.97167 19.4334C6.69615 19.1881 6.37597 18.9867 6.01633 18.8261L5.60867 19.7392ZM6.30674 20.1803C6.48814 20.3418 6.6265 20.5295 6.72521 20.7467L7.63558 20.3329C7.47861 19.9875 7.25618 19.6866 6.97167 19.4334L6.30674 20.1803ZM6.72696 20.7505C6.82277 20.9567 6.87832 21.2066 6.8807 21.511L7.88067 21.5032C7.87736 21.0803 7.79939 20.6854 7.63384 20.3291L6.72696 20.7505ZM6.88069 21.5044C6.87831 21.9509 6.76592 22.3133 6.55974 22.6128L7.38344 23.1798C7.71703 22.6952 7.87737 22.1315 7.88067 21.5098L6.88069 21.5044ZM6.55931 22.6134C6.35435 22.9121 6.0492 23.1592 5.61616 23.3441L6.00884 24.2638C6.58717 24.0169 7.05474 23.6589 7.38388 23.1792L6.55931 22.6134ZM5.61743 23.3436C5.19183 23.5239 4.65532 23.6236 3.9929 23.6236V24.6236C4.75093 24.6236 5.42749 24.5102 6.00757 24.2644L5.61743 23.3436ZM3.9929 23.6236C3.33829 23.6236 2.79218 23.5232 2.34287 23.3376L1.96111 24.2618C2.55726 24.5081 3.23842 24.6236 3.9929 24.6236V23.6236ZM2.34376 23.338C1.90391 23.1553 1.57743 22.8935 1.34453 22.5566L0.521944 23.1252C0.874271 23.6349 1.3603 24.0123 1.96022 24.2615L2.34376 23.338ZM1.3467 22.5598C1.12197 22.2293 0.989649 21.8013 0.977145 21.2486L-0.0225994 21.2713C-0.006694 21.9743 0.164967 22.6003 0.519775 23.1221L1.3467 22.5598ZM0.477273 21.7599H2.26278V20.7599H0.477273V21.7599ZM1.76393 21.2938C1.7891 21.6641 1.89824 22.0063 2.1149 22.2938L2.91351 21.692C2.83472 21.5874 2.77624 21.441 2.76163 21.226L1.76393 21.2938ZM2.11984 22.3003C2.33033 22.5703 2.60605 22.7675 2.93027 22.8964L3.29984 21.9672C3.12407 21.8973 2.99921 21.8018 2.90857 21.6855L2.11984 22.3003ZM2.93662 22.8989C3.25548 23.0207 3.60292 23.0767 3.97159 23.0767V22.0767C3.7039 22.0767 3.48031 22.0361 3.29349 21.9647L2.93662 22.8989ZM3.97159 23.0767C4.3311 23.0767 4.66747 23.0246 4.96923 22.9054L4.6018 21.9753C4.44333 22.0379 4.23708 22.0767 3.97159 22.0767V23.0767ZM4.96728 22.9061C5.26553 22.7897 5.52559 22.6161 5.71915 22.3709L4.93426 21.7513C4.87214 21.83 4.77141 21.9091 4.60374 21.9746L4.96728 22.9061ZM5.71915 22.3709C5.91807 22.1189 6.01847 21.8232 6.01847 21.5028H5.01847C5.01847 21.603 4.99102 21.6794 4.93426 21.7513L5.71915 22.3709ZM6.01847 21.5028C6.01847 21.1998 5.92509 20.9143 5.72053 20.6798L4.96697 21.3372C4.99537 21.3698 5.01847 21.4139 5.01847 21.5028H6.01847ZM5.72452 20.6845C5.54517 20.4737 5.30379 20.3205 5.03573 20.2071L4.64609 21.1281C4.82121 21.2022 4.91506 21.2763 4.96298 21.3326L5.72452 20.6845ZM5.03787 20.208C4.78577 20.1 4.48881 20.0069 4.15269 19.9259L3.91833 20.898C4.21858 20.9704 4.45855 21.0477 4.64395 21.1272L5.03787 20.208ZM4.15729 19.927L3.20701 19.6884L2.96345 20.6582L3.91373 20.8969L4.15729 19.927ZM3.2034 19.6875C2.52245 19.5218 2.02362 19.272 1.67544 18.9609L1.00922 19.7067C1.51331 20.157 2.17642 20.4668 2.96705 20.6591L3.2034 19.6875ZM1.67544 18.9609C1.37044 18.6885 1.20508 18.3199 1.20738 17.7977L0.207391 17.7933C0.20401 18.5608 0.46195 19.2178 1.00922 19.7067L1.67544 18.9609ZM1.20738 17.7928C1.20505 17.3604 1.31817 17.0041 1.53514 16.7025L0.723384 16.1185C0.372167 16.6067 0.204036 17.1736 0.207394 17.7981L1.20738 17.7928ZM1.53376 16.7044C1.76291 16.3891 2.08284 16.1332 2.51225 15.9429L2.10707 15.0287C1.53648 15.2816 1.06948 15.6422 0.724768 16.1166L1.53376 16.7044ZM2.51225 15.9429C2.93886 15.7538 3.43631 15.6534 4.0142 15.6534V14.6534C3.31938 14.6534 2.68046 14.7746 2.10707 15.0287L2.51225 15.9429ZM4.0142 15.6534C4.60539 15.6534 5.09689 15.7545 5.50172 15.9402L5.91874 15.0313C5.35766 14.7739 4.71847 14.6534 4.0142 14.6534V15.6534ZM5.50272 15.9407C5.91553 16.129 6.21829 16.3815 6.43095 16.6926L7.25655 16.1284C6.92944 15.6498 6.47652 15.2858 5.91773 15.0309L5.50272 15.9407ZM6.43095 16.6926C6.64079 16.9997 6.75437 17.36 6.76143 17.7909L7.7613 17.7745C7.75132 17.1656 7.58648 16.6111 7.25655 16.1284L6.43095 16.6926ZM7.26136 17.2827H5.4929V18.2827H7.26136V17.2827ZM16.1005 22.0653L15.6606 21.8276L15.6598 21.8291L16.1005 22.0653ZM14.6346 23.5952L14.8811 24.0302L14.8818 24.0298L14.6346 23.5952ZM10.467 23.5909L10.715 23.1568L10.467 23.5909ZM9.00533 22.0611L8.56467 22.2973L8.56467 22.2973L9.00533 22.0611ZM9.00533 17.2074L9.44598 17.4437L9.44598 17.4437L9.00533 17.2074ZM10.467 15.6818L10.7135 16.1168L10.715 16.1159L10.467 15.6818ZM14.6346 15.6818L14.3865 16.1159L14.3889 16.1173L14.6346 15.6818ZM16.1005 17.2074L15.6598 17.4437L15.6606 17.4451L16.1005 17.2074ZM14.494 18.0767L14.0345 18.274L14.0357 18.2766L14.494 18.0767ZM13.7227 17.1136L13.4478 17.5313L13.4478 17.5313L13.7227 17.1136ZM11.3874 17.1136L11.6623 17.5313L11.6623 17.5313L11.3874 17.1136ZM10.6119 18.0767L10.1536 17.8768L10.1524 17.8794L10.6119 18.0767ZM10.6119 21.196L10.1524 21.3934L10.1536 21.3959L10.6119 21.196ZM11.3874 22.1591L11.6623 21.7414L11.6623 21.7414L11.3874 22.1591ZM13.7227 22.1591L13.4478 21.7414L13.4478 21.7414L13.7227 22.1591ZM14.494 21.196L14.0357 20.9961L14.0346 20.9987L14.494 21.196ZM16.1417 19.6364C16.1417 20.5258 15.9732 21.2493 15.6606 21.8276L16.5404 22.3031C16.9494 21.5462 17.1417 20.6504 17.1417 19.6364H16.1417ZM15.6598 21.8291C15.3435 22.4192 14.9196 22.8578 14.3874 23.1606L14.8818 24.0298C15.5882 23.628 16.1416 23.0468 16.5412 22.3016L15.6598 21.8291ZM14.388 23.1602C13.8532 23.4634 13.2462 23.6193 12.555 23.6193V24.6193C13.4037 24.6193 14.1831 24.4258 14.8811 24.0302L14.388 23.1602ZM12.555 23.6193C11.8582 23.6193 11.2491 23.462 10.715 23.1568L10.2189 24.025C10.9178 24.4244 11.7007 24.6193 12.555 24.6193V23.6193ZM10.715 23.1568C10.1856 22.8542 9.76268 22.4155 9.44598 21.8248L8.56467 22.2973C8.96388 23.0419 9.51543 23.623 10.2189 24.025L10.715 23.1568ZM9.44598 21.8248C9.13562 21.246 8.96839 20.5232 8.96839 19.6364H7.96839C7.96839 20.6472 8.15913 21.541 8.56467 22.2973L9.44598 21.8248ZM8.96839 19.6364C8.96839 18.7464 9.13572 18.0223 9.44598 17.4437L8.56467 16.9711C8.15902 17.7277 7.96839 18.6229 7.96839 19.6364H8.96839ZM9.44598 17.4437C9.76252 16.8533 10.1849 16.4164 10.7135 16.1168L10.2204 15.2468C9.51604 15.6461 8.96404 16.2263 8.56467 16.9711L9.44598 17.4437ZM10.715 16.1159C11.2491 15.8108 11.8582 15.6534 12.555 15.6534V14.6534C11.7007 14.6534 10.9178 14.8483 10.2189 15.2477L10.715 16.1159ZM12.555 15.6534C13.2455 15.6534 13.8519 15.8104 14.3865 16.1159L14.8827 15.2477C14.1843 14.8487 13.4044 14.6534 12.555 14.6534V15.6534ZM14.3889 16.1173C14.9202 16.4171 15.3436 16.8539 15.6598 17.4437L16.5412 16.9711C16.1415 16.2257 15.5876 15.6454 14.8803 15.2464L14.3889 16.1173ZM15.6606 17.4451C15.9732 18.0234 16.1417 18.747 16.1417 19.6364H17.1417C17.1417 18.6224 16.9494 17.7266 16.5404 16.9697L15.6606 17.4451ZM15.271 19.6364C15.271 18.9729 15.172 18.3805 14.9523 17.8768L14.0357 18.2766C14.1853 18.6195 14.271 19.0669 14.271 19.6364H15.271ZM14.9534 17.8794C14.7392 17.3807 14.424 16.9766 13.9975 16.696L13.4478 17.5313C13.6861 17.6882 13.8851 17.9261 14.0346 18.274L14.9534 17.8794ZM13.9975 16.696C13.5739 16.4172 13.0865 16.2855 12.555 16.2855V17.2855C12.9156 17.2855 13.2067 17.3726 13.4478 17.5313L13.9975 16.696ZM12.555 16.2855C12.0235 16.2855 11.5362 16.4172 11.1126 16.696L11.6623 17.5313C11.9034 17.3726 12.1945 17.2855 12.555 17.2855V16.2855ZM11.1126 16.696C10.6869 16.9761 10.3706 17.3793 10.1536 17.8768L11.0702 18.2766C11.2224 17.9276 11.4232 17.6887 11.6623 17.5313L11.1126 16.696ZM10.1524 17.8794C9.93644 18.3823 9.83913 18.9737 9.83913 19.6364H10.8391C10.8391 19.066 10.9236 18.6177 11.0713 18.274L10.1524 17.8794ZM9.83913 19.6364C9.83913 20.299 9.93644 20.8905 10.1524 21.3934L11.0713 20.9987C10.9236 20.655 10.8391 20.2067 10.8391 19.6364H9.83913ZM10.1536 21.3959C10.3706 21.8935 10.6869 22.2966 11.1126 22.5768L11.6623 21.7414C11.4232 21.5841 11.2224 21.3452 11.0702 20.9961L10.1536 21.3959ZM11.1126 22.5768C11.5362 22.8556 12.0235 22.9872 12.555 22.9872V21.9872C12.1945 21.9872 11.9034 21.9001 11.6623 21.7414L11.1126 22.5768ZM12.555 22.9872C13.0865 22.9872 13.5739 22.8556 13.9975 22.5768L13.4478 21.7414C13.2067 21.9001 12.9156 21.9872 12.555 21.9872V22.9872ZM13.9975 22.5768C14.424 22.2961 14.7392 21.892 14.9534 21.3934L14.0346 20.9987C13.8851 21.3466 13.6861 21.5846 13.4478 21.7414L13.9975 22.5768ZM14.9523 21.3959C15.172 20.8923 15.271 20.2998 15.271 19.6364H14.271C14.271 20.2059 14.1853 20.6532 14.0357 20.9961L14.9523 21.3959ZM18.0085 24H17.5085V24.5H18.0085V24ZM18.0085 15.2727V14.7727H17.5085V15.2727H18.0085ZM23.7869 15.2727H24.2869V14.7727H23.7869V15.2727ZM23.7869 16.794V17.294H24.2869V16.794H23.7869ZM19.8537 16.794V16.294H19.3537V16.794H19.8537ZM19.8537 18.8736H19.3537V19.3736H19.8537V18.8736ZM23.4034 18.8736H23.9034V18.3736H23.4034V18.8736ZM23.4034 20.3949V20.8949H23.9034V20.3949H23.4034ZM19.8537 20.3949V19.8949H19.3537V20.3949H19.8537ZM19.8537 24V24.5H20.3537V24H19.8537ZM18.5085 24V15.2727H17.5085V24H18.5085ZM18.0085 15.7727H23.7869V14.7727H18.0085V15.7727ZM23.2869 15.2727V16.794H24.2869V15.2727H23.2869ZM23.7869 16.294H19.8537V17.294H23.7869V16.294ZM19.3537 16.794V18.8736H20.3537V16.794H19.3537ZM19.8537 19.3736H23.4034V18.3736H19.8537V19.3736ZM22.9034 18.8736V20.3949H23.9034V18.8736H22.9034ZM23.4034 19.8949H19.8537V20.8949H23.4034V19.8949ZM19.3537 20.3949V24H20.3537V20.3949H19.3537ZM19.8537 23.5H18.0085V24.5H19.8537V23.5ZM24.6957 16.794H24.1957V17.294H24.6957V16.794ZM24.6957 15.2727V14.7727H24.1957V15.2727H24.6957ZM31.8633 15.2727H32.3633V14.7727H31.8633V15.2727ZM31.8633 16.794V17.294H32.3633V16.794H31.8633ZM29.1914 16.794V16.294H28.6914V16.794H29.1914ZM29.1914 24V24.5H29.6914V24H29.1914ZM27.3675 24H26.8675V24.5H27.3675V24ZM27.3675 16.794H27.8675V16.294H27.3675V16.794ZM25.1957 16.794V15.2727H24.1957V16.794H25.1957ZM24.6957 15.7727H31.8633V14.7727H24.6957V15.7727ZM31.3633 15.2727V16.794H32.3633V15.2727H31.3633ZM31.8633 16.294H29.1914V17.294H31.8633V16.294ZM28.6914 16.794V24H29.6914V16.794H28.6914ZM29.1914 23.5H27.3675V24.5H29.1914V23.5ZM27.8675 24V16.794H26.8675V24H27.8675ZM27.3675 16.294H24.6957V17.294H27.3675V16.294ZM35.0082 24L34.5275 24.1375L34.6312 24.5H35.0082V24ZM32.511 15.2727V14.7727H31.8479L32.0303 15.4103L32.511 15.2727ZM34.5266 15.2727L35.013 15.1569L34.9215 14.7727H34.5266V15.2727ZM35.9712 21.3366L35.4848 21.4525L35.5764 21.8366H35.9712V21.3366ZM36.0437 21.3366V21.8366H36.4292L36.5273 21.4637L36.0437 21.3366ZM37.6374 15.2727V14.7727H37.2519L37.1539 15.1456L37.6374 15.2727ZM39.3633 15.2727L39.847 15.1462L39.7493 14.7727H39.3633V15.2727ZM40.9528 21.3494L40.469 21.476L40.5667 21.8494H40.9528V21.3494ZM41.0295 21.3494V21.8494H41.4245L41.5159 21.4651L41.0295 21.3494ZM42.4741 15.2727V14.7727H42.079L41.9876 15.1571L42.4741 15.2727ZM44.4897 15.2727L44.9704 15.4103L45.1528 14.7727H44.4897V15.2727ZM41.9925 24V24.5H42.3695L42.4733 24.1375L41.9925 24ZM40.1942 24L39.7142 24.1398L39.8191 24.5H40.1942V24ZM38.5323 18.294L39.0124 18.1542L38.9075 17.794H38.5323V18.294ZM38.4641 18.294V17.794H38.0887L37.984 18.1545L38.4641 18.294ZM36.8065 24V24.5H37.1819L37.2866 24.1395L36.8065 24ZM35.4889 23.8625L32.9917 15.1352L32.0303 15.4103L34.5275 24.1375L35.4889 23.8625ZM32.511 15.7727H34.5266V14.7727H32.511V15.7727ZM34.0402 15.3886L35.4848 21.4525L36.4576 21.2208L35.013 15.1569L34.0402 15.3886ZM35.9712 21.8366H36.0437V20.8366H35.9712V21.8366ZM36.5273 21.4637L38.121 15.3998L37.1539 15.1456L35.5601 21.2096L36.5273 21.4637ZM37.6374 15.7727H39.3633V14.7727H37.6374V15.7727ZM38.8796 15.3993L40.469 21.476L41.4365 21.2229L39.847 15.1462L38.8796 15.3993ZM40.9528 21.8494H41.0295V20.8494H40.9528V21.8494ZM41.5159 21.4651L42.9605 15.3884L41.9876 15.1571L40.543 21.2338L41.5159 21.4651ZM42.4741 15.7727H44.4897V14.7727H42.4741V15.7727ZM44.009 15.1352L41.5118 23.8625L42.4733 24.1375L44.9704 15.4103L44.009 15.1352ZM41.9925 23.5H40.1942V24.5H41.9925V23.5ZM40.6743 23.8602L39.0124 18.1542L38.0523 18.4339L39.7142 24.1398L40.6743 23.8602ZM38.5323 17.794H38.4641V18.794H38.5323V17.794ZM37.984 18.1545L36.3263 23.8605L37.2866 24.1395L38.9443 18.4335L37.984 18.1545ZM36.8065 23.5H35.0082V24.5H36.8065V23.5ZM46.1026 24V24.5H46.4658L46.5781 24.1547L46.1026 24ZM44.1254 24L43.6527 23.8368L43.4238 24.5H44.1254V24ZM47.1381 15.2727V14.7727H46.7818L46.6655 15.1096L47.1381 15.2727ZM49.516 15.2727L49.9887 15.1098L49.8725 14.7727H49.516V15.2727ZM52.5245 24V24.5H53.2257L52.9972 23.837L52.5245 24ZM50.5472 24L50.0717 24.1544L50.1839 24.5H50.5472V24ZM48.3612 17.267L48.8367 17.1126L48.7245 16.767H48.3612V17.267ZM48.293 17.267V16.767H47.9298L47.8175 17.1124L48.293 17.267ZM45.979 20.5696V20.0696H45.479V20.5696H45.979ZM50.6495 20.5696H51.1495V20.0696H50.6495V20.5696ZM50.6495 22.0099V22.5099H51.1495V22.0099H50.6495ZM45.979 22.0099H45.479V22.5099H45.979V22.0099ZM46.1026 23.5H44.1254V24.5H46.1026V23.5ZM44.598 24.1632L47.6108 15.4359L46.6655 15.1096L43.6527 23.8368L44.598 24.1632ZM47.1381 15.7727H49.516V14.7727H47.1381V15.7727ZM49.0433 15.4357L52.0518 24.163L52.9972 23.837L49.9887 15.1098L49.0433 15.4357ZM52.5245 23.5H50.5472V24.5H52.5245V23.5ZM51.0228 23.8456L48.8367 17.1126L47.8856 17.4215L50.0717 24.1544L51.0228 23.8456ZM48.3612 16.767H48.293V17.767H48.3612V16.767ZM47.8175 17.1124L45.6272 23.8453L46.5781 24.1547L48.7684 17.4217L47.8175 17.1124ZM45.979 21.0696H50.6495V20.0696H45.979V21.0696ZM50.1495 20.5696V22.0099H51.1495V20.5696H50.1495ZM50.6495 21.5099H45.979V22.5099H50.6495V21.5099ZM46.479 22.0099V20.5696H45.479V22.0099H46.479ZM53.5749 24H53.0749V24.5H53.5749V24ZM53.5749 15.2727V14.7727H53.0749V15.2727H53.5749ZM58.7056 15.6264L58.4798 16.0726L58.4831 16.0742L58.7056 15.6264ZM59.7752 16.6193L59.3407 16.8668L59.3427 16.8702L59.7752 16.6193ZM59.771 19.6193L60.1992 19.8774L60.2 19.8761L59.771 19.6193ZM58.6843 20.5739L58.4727 20.1208L58.4717 20.1213L58.6843 20.5739ZM54.6658 20.9062H54.1658V21.4062H54.6658V20.9062ZM54.6658 19.4233V18.9233H54.1658V19.4233H54.6658ZM57.5508 19.2784L57.7423 19.7403L57.7423 19.7403L57.5508 19.2784ZM58.0707 18.8438L57.6425 18.5856L57.6397 18.5902L58.0707 18.8438ZM58.0707 17.3906L57.6365 17.6387L57.6392 17.6433L58.0707 17.3906ZM57.5465 16.9389L57.3409 17.3947L57.3476 17.3976L57.5465 16.9389ZM55.4201 16.7812V16.2812H54.9201V16.7812H55.4201ZM55.4201 24V24.5H55.9201V24H55.4201ZM58.288 20.0284L58.7268 19.7888L58.5846 19.5284H58.288V20.0284ZM60.457 24V24.5H61.2998L60.8959 23.7603L60.457 24ZM58.4201 24L57.9791 24.2356L58.1204 24.5H58.4201V24ZM56.2979 20.0284V19.5284H55.4639L55.8569 20.264L56.2979 20.0284ZM54.0749 24V15.2727H53.0749V24H54.0749ZM53.5749 15.7727H57.0181V14.7727H53.5749V15.7727ZM57.0181 15.7727C57.6188 15.7727 58.0998 15.8802 58.4798 16.0725L58.9314 15.1803C58.3796 14.901 57.7356 14.7727 57.0181 14.7727V15.7727ZM58.4831 16.0742C58.8685 16.2657 59.1486 16.5295 59.3407 16.8668L60.2097 16.3719C59.9132 15.8512 59.4802 15.453 58.9281 15.1787L58.4831 16.0742ZM59.3427 16.8702C59.5386 17.208 59.646 17.6198 59.646 18.1236H60.646C60.646 17.4739 60.5061 16.8829 60.2077 16.3685L59.3427 16.8702ZM59.646 18.1236C59.646 18.63 59.5373 19.0362 59.3419 19.3625L60.2 19.8761C60.5046 19.3673 60.646 18.7762 60.646 18.1236H59.646ZM59.3427 19.3612C59.1482 19.684 58.8648 19.9377 58.4727 20.1208L58.8959 21.0269C59.4526 20.7669 59.8937 20.3842 60.1992 19.8774L59.3427 19.3612ZM58.4717 20.1213C58.0828 20.304 57.5885 20.4062 56.9712 20.4062V21.4062C57.6949 21.4062 58.3426 21.2869 58.8969 21.0264L58.4717 20.1213ZM56.9712 20.4062H54.6658V21.4062H56.9712V20.4062ZM55.1658 20.9062V19.4233H54.1658V20.9062H55.1658ZM54.6658 19.9233H56.6729V18.9233H54.6658V19.9233ZM56.6729 19.9233C57.0667 19.9233 57.4296 19.8699 57.7423 19.7403L57.3593 18.8165C57.206 18.8801 56.9837 18.9233 56.6729 18.9233V19.9233ZM57.7423 19.7403C58.0624 19.6076 58.3261 19.3957 58.5016 19.0973L57.6397 18.5902C57.588 18.6782 57.5051 18.7561 57.3593 18.8165L57.7423 19.7403ZM58.4989 19.1019C58.6735 18.8123 58.7454 18.4771 58.7454 18.1236H57.7454C57.7454 18.3439 57.7008 18.4889 57.6425 18.5856L58.4989 19.1019ZM58.7454 18.1236C58.7454 17.7675 58.6737 17.4308 58.5021 17.1379L57.6392 17.6433C57.7006 17.7482 57.7454 17.9001 57.7454 18.1236H58.7454ZM58.5048 17.1426C58.3311 16.8386 58.0677 16.6199 57.7455 16.4802L57.3476 17.3976C57.497 17.4624 57.583 17.5449 57.6365 17.6387L58.5048 17.1426ZM57.7522 16.4832C57.4346 16.3399 57.0646 16.2812 56.6644 16.2812V17.2812C56.9745 17.2812 57.1926 17.3278 57.3409 17.3947L57.7522 16.4832ZM56.6644 16.2812H55.4201V17.2812H56.6644V16.2812ZM54.9201 16.7812V24H55.9201V16.7812H54.9201ZM55.4201 23.5H53.5749V24.5H55.4201V23.5ZM57.8492 20.2681L60.0182 24.2397L60.8959 23.7603L58.7268 19.7888L57.8492 20.2681ZM60.457 23.5H58.4201V24.5H60.457V23.5ZM58.8611 23.7644L56.7389 19.7928L55.8569 20.264L57.9791 24.2356L58.8611 23.7644ZM56.2979 20.5284H58.288V19.5284H56.2979V20.5284ZM61.4499 24H60.9499V24.5H61.4499V24ZM61.4499 15.2727V14.7727H60.9499V15.2727H61.4499ZM67.3306 15.2727H67.8306V14.7727H67.3306V15.2727ZM67.3306 16.794V17.294H67.8306V16.794H67.3306ZM63.2951 16.794V16.294H62.7951V16.794H63.2951ZM63.2951 18.8736H62.7951V19.3736H63.2951V18.8736ZM67.0281 18.8736H67.5281V18.3736H67.0281V18.8736ZM67.0281 20.3949V20.8949H67.5281V20.3949H67.0281ZM63.2951 20.3949V19.8949H62.7951V20.3949H63.2951ZM63.2951 22.4787H62.7951V22.9787H63.2951V22.4787ZM67.3477 22.4787H67.8477V21.9787H67.3477V22.4787ZM67.3477 24V24.5H67.8477V24H67.3477ZM61.9499 24V15.2727H60.9499V24H61.9499ZM61.4499 15.7727H67.3306V14.7727H61.4499V15.7727ZM66.8306 15.2727V16.794H67.8306V15.2727H66.8306ZM67.3306 16.294H63.2951V17.294H67.3306V16.294ZM62.7951 16.794V18.8736H63.7951V16.794H62.7951ZM63.2951 19.3736H67.0281V18.3736H63.2951V19.3736ZM66.5281 18.8736V20.3949H67.5281V18.8736H66.5281ZM67.0281 19.8949H63.2951V20.8949H67.0281V19.8949ZM62.7951 20.3949V22.4787H63.7951V20.3949H62.7951ZM63.2951 22.9787H67.3477V21.9787H63.2951V22.9787ZM66.8477 22.4787V24H67.8477V22.4787H66.8477ZM67.3477 23.5H61.4499V24.5H67.3477V23.5ZM5.4929 32.7827L4.99534 32.832L5.04003 33.2827H5.4929V32.7827ZM3.23864 31.8239L3.42325 32.2886L3.42869 32.2863L3.23864 31.8239ZM2.76136 32.169L2.36133 31.869L2.35767 31.874L2.76136 32.169ZM2.59943 32.6719L3.0991 32.69L3.09943 32.681V32.6719H2.59943ZM2.69744 33.081L2.27048 33.3413L2.27519 33.3487L2.69744 33.081ZM3 33.3835L2.72262 33.7996L2.72915 33.8038L3 33.3835ZM3.44318 33.6009L3.26847 34.0694L3.27552 34.0719L3.44318 33.6009ZM3.98011 33.7543L4.09641 33.2679L4.08935 33.2663L3.98011 33.7543ZM4.7642 33.9418L4.64791 34.4281L4.65497 34.4297L4.7642 33.9418ZM5.8125 34.2827L5.60867 34.7392L5.60867 34.7392L5.8125 34.2827ZM6.6392 34.8068L6.97167 34.4334L6.97167 34.4334L6.6392 34.8068ZM7.1804 35.5398L6.7252 35.7467L6.72696 35.7505L7.1804 35.5398ZM7.38068 36.5071L7.88072 36.5098L7.88067 36.5032L7.38068 36.5071ZM6.97159 37.8963L6.55974 37.6128L6.55931 37.6134L6.97159 37.8963ZM5.8125 38.804L6.00758 39.2644L6.00884 39.2638L5.8125 38.804ZM2.15199 38.7997L1.96022 39.2615L1.96111 39.2618L2.15199 38.7997ZM0.933239 37.8409L0.519763 38.1221L0.521944 38.1252L0.933239 37.8409ZM0.477273 36.2599V35.7599H-0.0341675L-0.0225994 36.2713L0.477273 36.2599ZM2.26278 36.2599L2.76163 36.226L2.72996 35.7599H2.26278V36.2599ZM2.5142 36.9929L2.11485 37.2939L2.11984 37.3003L2.5142 36.9929ZM3.11506 37.4318L2.93025 37.8965L2.93662 37.8989L3.11506 37.4318ZM4.78551 37.4403L4.60374 36.9745L4.6018 36.9753L4.78551 37.4403ZM5.3267 37.0611L5.71915 37.3709L5.71915 37.3709L5.3267 37.0611ZM5.34375 36.0085L4.96295 36.3326L4.96697 36.3372L5.34375 36.0085ZM4.84091 35.6676L4.64395 36.1272L4.64609 36.1281L4.84091 35.6676ZM4.03551 35.4119L3.91373 35.8969L3.91833 35.898L4.03551 35.4119ZM3.08523 35.1733L3.20701 34.6883L3.2034 34.6875L3.08523 35.1733ZM1.34233 34.3338L1.00922 34.7067L1.00922 34.7067L1.34233 34.3338ZM0.707386 32.7955L1.20741 32.7977L1.20738 32.7928L0.707386 32.7955ZM1.12926 31.4105L0.724763 31.1166L0.723384 31.1185L1.12926 31.4105ZM5.71023 30.4858L5.50172 30.9402L5.50272 30.9407L5.71023 30.4858ZM6.84375 31.4105L6.43095 31.6926L6.43095 31.6926L6.84375 31.4105ZM7.26136 32.7827V33.2827H7.76963L7.7613 32.7745L7.26136 32.7827ZM5.99046 32.7333C5.94358 32.2607 5.73239 31.8601 5.35043 31.5789L4.75753 32.3842C4.89261 32.4836 4.97403 32.6172 4.99534 32.832L5.99046 32.7333ZM5.35043 31.5789C4.97875 31.3052 4.51155 31.196 4.00142 31.196V32.196C4.37765 32.196 4.61216 32.2771 4.75753 32.3842L5.35043 31.5789ZM4.00142 31.196C3.65617 31.196 3.3331 31.2445 3.04858 31.3614L3.42869 32.2863C3.55894 32.2328 3.7444 32.196 4.00142 32.196V31.196ZM3.05404 31.3592C2.77897 31.4685 2.53795 31.6336 2.36136 31.869L3.16136 32.469C3.20637 32.409 3.28353 32.344 3.42323 32.2885L3.05404 31.3592ZM2.35767 31.874C2.18549 32.1096 2.09943 32.3811 2.09943 32.6719H3.09943C3.09943 32.5876 3.12132 32.5239 3.16506 32.464L2.35767 31.874ZM2.09976 32.6537C2.09105 32.8932 2.14133 33.1294 2.27055 33.3413L3.12434 32.8207C3.11151 32.7996 3.09645 32.7631 3.0991 32.69L2.09976 32.6537ZM2.27519 33.3487C2.39052 33.5306 2.54333 33.68 2.72265 33.7995L3.27735 32.9675C3.20098 32.9166 3.15209 32.8643 3.1197 32.8132L2.27519 33.3487ZM2.72915 33.8038C2.89195 33.9087 3.07291 33.9964 3.26849 34.0693L3.61787 33.1324C3.47823 33.0803 3.36373 33.0231 3.27085 32.9632L2.72915 33.8038ZM3.27552 34.0719C3.46397 34.139 3.6626 34.1956 3.87088 34.2422L4.08935 33.2663C3.91694 33.2277 3.75762 33.182 3.61084 33.1298L3.27552 34.0719ZM3.86383 34.2406L4.64792 34.4281L4.88049 33.4555L4.0964 33.268L3.86383 34.2406ZM4.65497 34.4297C5.00695 34.5085 5.32426 34.6123 5.60867 34.7392L6.01633 33.8261C5.66438 33.669 5.28282 33.5455 4.87344 33.4538L4.65497 34.4297ZM5.60867 34.7392C5.88539 34.8628 6.11635 35.0108 6.30674 35.1803L6.97167 34.4334C6.69615 34.1881 6.37597 33.9867 6.01633 33.8261L5.60867 34.7392ZM6.30674 35.1803C6.48814 35.3418 6.6265 35.5295 6.72521 35.7467L7.63558 35.3329C7.47861 34.9875 7.25618 34.6866 6.97167 34.4334L6.30674 35.1803ZM6.72696 35.7505C6.82277 35.9567 6.87832 36.2066 6.8807 36.511L7.88067 36.5032C7.87736 36.0803 7.79939 35.6854 7.63384 35.3291L6.72696 35.7505ZM6.88069 36.5044C6.87831 36.9509 6.76592 37.3133 6.55974 37.6128L7.38344 38.1798C7.71703 37.6952 7.87737 37.1315 7.88067 36.5098L6.88069 36.5044ZM6.55931 37.6134C6.35435 37.9121 6.0492 38.1592 5.61616 38.3441L6.00884 39.2638C6.58717 39.0169 7.05474 38.6589 7.38388 38.1792L6.55931 37.6134ZM5.61743 38.3436C5.19183 38.5239 4.65532 38.6236 3.9929 38.6236V39.6236C4.75093 39.6236 5.42749 39.5102 6.00757 39.2644L5.61743 38.3436ZM3.9929 38.6236C3.33829 38.6236 2.79218 38.5232 2.34287 38.3376L1.96111 39.2618C2.55726 39.5081 3.23842 39.6236 3.9929 39.6236V38.6236ZM2.34376 38.338C1.90391 38.1553 1.57743 37.8935 1.34453 37.5566L0.521944 38.1252C0.874271 38.6349 1.3603 39.0123 1.96022 39.2615L2.34376 38.338ZM1.3467 37.5598C1.12197 37.2293 0.989649 36.8013 0.977145 36.2486L-0.0225994 36.2713C-0.006694 36.9743 0.164967 37.6003 0.519775 38.1221L1.3467 37.5598ZM0.477273 36.7599H2.26278V35.7599H0.477273V36.7599ZM1.76393 36.2938C1.7891 36.6641 1.89824 37.0063 2.1149 37.2938L2.91351 36.692C2.83472 36.5874 2.77624 36.441 2.76163 36.226L1.76393 36.2938ZM2.11984 37.3003C2.33033 37.5703 2.60605 37.7675 2.93027 37.8964L3.29984 36.9672C3.12407 36.8973 2.99921 36.8018 2.90857 36.6855L2.11984 37.3003ZM2.93662 37.8989C3.25548 38.0207 3.60292 38.0767 3.97159 38.0767V37.0767C3.7039 37.0767 3.48031 37.0361 3.29349 36.9647L2.93662 37.8989ZM3.97159 38.0767C4.3311 38.0767 4.66747 38.0246 4.96923 37.9054L4.6018 36.9753C4.44333 37.0379 4.23708 37.0767 3.97159 37.0767V38.0767ZM4.96728 37.9061C5.26553 37.7897 5.52559 37.6161 5.71915 37.3709L4.93426 36.7513C4.87214 36.83 4.77141 36.9091 4.60374 36.9746L4.96728 37.9061ZM5.71915 37.3709C5.91807 37.1189 6.01847 36.8232 6.01847 36.5028H5.01847C5.01847 36.603 4.99102 36.6794 4.93426 36.7513L5.71915 37.3709ZM6.01847 36.5028C6.01847 36.1998 5.92509 35.9143 5.72053 35.6798L4.96697 36.3372C4.99537 36.3698 5.01847 36.4139 5.01847 36.5028H6.01847ZM5.72452 35.6845C5.54517 35.4737 5.30379 35.3205 5.03573 35.2071L4.64609 36.1281C4.82121 36.2022 4.91506 36.2763 4.96298 36.3326L5.72452 35.6845ZM5.03787 35.208C4.78577 35.1 4.48881 35.0069 4.15269 34.9259L3.91833 35.898C4.21858 35.9704 4.45855 36.0477 4.64395 36.1272L5.03787 35.208ZM4.15729 34.927L3.20701 34.6884L2.96345 35.6582L3.91373 35.8969L4.15729 34.927ZM3.2034 34.6875C2.52245 34.5218 2.02362 34.272 1.67544 33.9609L1.00922 34.7067C1.51331 35.157 2.17642 35.4668 2.96705 35.6591L3.2034 34.6875ZM1.67544 33.9609C1.37044 33.6885 1.20508 33.3199 1.20738 32.7977L0.207391 32.7933C0.20401 33.5608 0.46195 34.2178 1.00922 34.7067L1.67544 33.9609ZM1.20738 32.7928C1.20505 32.3604 1.31817 32.0041 1.53514 31.7025L0.723384 31.1185C0.372167 31.6067 0.204036 32.1736 0.207394 32.7981L1.20738 32.7928ZM1.53376 31.7044C1.76291 31.3891 2.08284 31.1332 2.51225 30.9429L2.10707 30.0287C1.53648 30.2816 1.06948 30.6422 0.724768 31.1166L1.53376 31.7044ZM2.51225 30.9429C2.93886 30.7538 3.43631 30.6534 4.0142 30.6534V29.6534C3.31938 29.6534 2.68046 29.7746 2.10707 30.0287L2.51225 30.9429ZM4.0142 30.6534C4.60539 30.6534 5.09689 30.7545 5.50172 30.9402L5.91874 30.0313C5.35766 29.7739 4.71847 29.6534 4.0142 29.6534V30.6534ZM5.50272 30.9407C5.91553 31.129 6.21829 31.3815 6.43095 31.6926L7.25655 31.1284C6.92944 30.6498 6.47652 30.2858 5.91773 30.0309L5.50272 30.9407ZM6.43095 31.6926C6.64079 31.9997 6.75437 32.36 6.76143 32.7909L7.7613 32.7745C7.75132 32.1656 7.58648 31.6111 7.25655 31.1284L6.43095 31.6926ZM7.26136 32.2827H5.4929V33.2827H7.26136V32.2827ZM8.6218 39H8.1218V39.5H8.6218V39ZM8.6218 30.2727V29.7727H8.1218V30.2727H8.6218ZM14.5025 30.2727H15.0025V29.7727H14.5025V30.2727ZM14.5025 31.794V32.294H15.0025V31.794H14.5025ZM10.467 31.794V31.294H9.96697V31.794H10.467ZM10.467 33.8736H9.96697V34.3736H10.467V33.8736ZM14.1999 33.8736H14.6999V33.3736H14.1999V33.8736ZM14.1999 35.3949V35.8949H14.6999V35.3949H14.1999ZM10.467 35.3949V34.8949H9.96697V35.3949H10.467ZM10.467 37.4787H9.96697V37.9787H10.467V37.4787ZM14.5195 37.4787H15.0195V36.9787H14.5195V37.4787ZM14.5195 39V39.5H15.0195V39H14.5195ZM9.1218 39V30.2727H8.1218V39H9.1218ZM8.6218 30.7727H14.5025V29.7727H8.6218V30.7727ZM14.0025 30.2727V31.794H15.0025V30.2727H14.0025ZM14.5025 31.294H10.467V32.294H14.5025V31.294ZM9.96697 31.794V33.8736H10.967V31.794H9.96697ZM10.467 34.3736H14.1999V33.3736H10.467V34.3736ZM13.6999 33.8736V35.3949H14.6999V33.8736H13.6999ZM14.1999 34.8949H10.467V35.8949H14.1999V34.8949ZM9.96697 35.3949V37.4787H10.967V35.3949H9.96697ZM10.467 37.9787H14.5195V36.9787H10.467V37.9787ZM14.0195 37.4787V39H15.0195V37.4787H14.0195ZM14.5195 38.5H8.6218V39.5H14.5195V38.5ZM15.9695 39H15.4695V39.5H15.9695V39ZM15.9695 30.2727V29.7727H15.4695V30.2727H15.9695ZM21.1001 30.6264L20.8744 31.0726L20.8776 31.0742L21.1001 30.6264ZM22.1697 31.6193L21.7353 31.8668L21.7372 31.8702L22.1697 31.6193ZM22.1655 34.6193L22.5937 34.8774L22.5945 34.8761L22.1655 34.6193ZM21.0788 35.5739L20.8672 35.1208L20.8662 35.1213L21.0788 35.5739ZM17.0604 35.9062H16.5604V36.4062H17.0604V35.9062ZM17.0604 34.4233V33.9233H16.5604V34.4233H17.0604ZM19.9453 34.2784L20.1368 34.7403L20.1368 34.7403L19.9453 34.2784ZM20.4652 33.8438L20.037 33.5856L20.0342 33.5902L20.4652 33.8438ZM20.4652 32.3906L20.0311 32.6387L20.0338 32.6433L20.4652 32.3906ZM19.9411 31.9389L19.7354 32.3947L19.7421 32.3976L19.9411 31.9389ZM17.8146 31.7812V31.2812H17.3146V31.7812H17.8146ZM17.8146 39V39.5H18.3146V39H17.8146ZM20.6825 35.0284L21.1214 34.7888L20.9792 34.5284H20.6825V35.0284ZM22.8516 39V39.5H23.6943L23.2904 38.7603L22.8516 39ZM20.8146 39L20.3736 39.2356L20.5149 39.5H20.8146V39ZM18.6925 35.0284V34.5284H17.8584L18.2515 35.264L18.6925 35.0284ZM16.4695 39V30.2727H15.4695V39H16.4695ZM15.9695 30.7727H19.4126V29.7727H15.9695V30.7727ZM19.4126 30.7727C20.0133 30.7727 20.4944 30.8802 20.8744 31.0725L21.3259 30.1803C20.7741 29.901 20.1301 29.7727 19.4126 29.7727V30.7727ZM20.8776 31.0742C21.263 31.2657 21.5432 31.5295 21.7353 31.8668L22.6042 31.3719C22.3077 30.8512 21.8747 30.453 21.3227 30.1787L20.8776 31.0742ZM21.7372 31.8702C21.9331 32.208 22.0405 32.6198 22.0405 33.1236H23.0405C23.0405 32.4739 22.9007 31.8829 22.6023 31.3685L21.7372 31.8702ZM22.0405 33.1236C22.0405 33.63 21.9318 34.0362 21.7365 34.3625L22.5945 34.8761C22.8991 34.3673 23.0405 33.7762 23.0405 33.1236H22.0405ZM21.7373 34.3612C21.5427 34.684 21.2594 34.9377 20.8672 35.1208L21.2904 36.0269C21.8472 35.7669 22.2883 35.3842 22.5937 34.8774L21.7373 34.3612ZM20.8662 35.1213C20.4773 35.304 19.983 35.4062 19.3658 35.4062V36.4062C20.0894 36.4062 20.7371 36.2869 21.2915 36.0264L20.8662 35.1213ZM19.3658 35.4062H17.0604V36.4062H19.3658V35.4062ZM17.5604 35.9062V34.4233H16.5604V35.9062H17.5604ZM17.0604 34.9233H19.0675V33.9233H17.0604V34.9233ZM19.0675 34.9233C19.4612 34.9233 19.8242 34.8699 20.1368 34.7403L19.7538 33.8165C19.6005 33.8801 19.3783 33.9233 19.0675 33.9233V34.9233ZM20.1368 34.7403C20.4569 34.6076 20.7206 34.3957 20.8962 34.0973L20.0342 33.5902C19.9825 33.6782 19.8996 33.7561 19.7538 33.8165L20.1368 34.7403ZM20.8934 34.1019C21.068 33.8123 21.1399 33.4771 21.1399 33.1236H20.1399C20.1399 33.3439 20.0953 33.4889 20.037 33.5856L20.8934 34.1019ZM21.1399 33.1236C21.1399 32.7675 21.0682 32.4308 20.8966 32.1379L20.0338 32.6433C20.0952 32.7482 20.1399 32.9001 20.1399 33.1236H21.1399ZM20.8993 32.1426C20.7256 31.8386 20.4622 31.6199 20.14 31.4802L19.7421 32.3976C19.8915 32.4624 19.9775 32.5449 20.0311 32.6387L20.8993 32.1426ZM20.1467 31.4832C19.8291 31.3399 19.4591 31.2812 19.0589 31.2812V32.2812C19.369 32.2812 19.5871 32.3278 19.7354 32.3947L20.1467 31.4832ZM19.0589 31.2812H17.8146V32.2812H19.0589V31.2812ZM17.3146 31.7812V39H18.3146V31.7812H17.3146ZM17.8146 38.5H15.9695V39.5H17.8146V38.5ZM20.2437 35.2681L22.4127 39.2397L23.2904 38.7603L21.1214 34.7888L20.2437 35.2681ZM22.8516 38.5H20.8146V39.5H22.8516V38.5ZM21.2556 38.7644L19.1335 34.7928L18.2515 35.264L20.3736 39.2356L21.2556 38.7644ZM18.6925 35.5284H20.6825V34.5284H18.6925V35.5284ZM25.1868 30.2727L25.6633 30.1212L25.5524 29.7727H25.1868V30.2727ZM27.2962 36.9034L26.8197 37.055L26.9305 37.4034H27.2962V36.9034ZM27.3771 36.9034V37.4034H27.7425L27.8535 37.0553L27.3771 36.9034ZM29.4908 30.2727V29.7727H29.1254L29.0144 30.1209L29.4908 30.2727ZM31.5362 30.2727L32.0089 30.4357L32.2375 29.7727H31.5362V30.2727ZM28.5277 39V39.5H28.8842L29.0004 39.163L28.5277 39ZM26.1499 39L25.6772 39.1632L25.7935 39.5H26.1499V39ZM23.1371 30.2727V29.7727H22.4355L22.6644 30.4359L23.1371 30.2727ZM24.7103 30.4243L26.8197 37.055L27.7726 36.7518L25.6633 30.1212L24.7103 30.4243ZM27.2962 37.4034H27.3771V36.4034H27.2962V37.4034ZM27.8535 37.0553L29.9671 30.4246L29.0144 30.1209L26.9007 36.7516L27.8535 37.0553ZM29.4908 30.7727H31.5362V29.7727H29.4908V30.7727ZM31.0635 30.1098L28.055 38.837L29.0004 39.163L32.0089 30.4357L31.0635 30.1098ZM28.5277 38.5H26.1499V39.5H28.5277V38.5ZM26.6225 38.8368L23.6097 30.1096L22.6644 30.4359L25.6772 39.1632L26.6225 38.8368ZM23.1371 30.7727H25.1868V29.7727H23.1371V30.7727ZM34.4318 30.2727H34.9318V29.7727H34.4318V30.2727ZM34.4318 39V39.5H34.9318V39H34.4318ZM32.5866 39H32.0866V39.5H32.5866V39ZM32.5866 30.2727V29.7727H32.0866V30.2727H32.5866ZM33.9318 30.2727V39H34.9318V30.2727H33.9318ZM34.4318 38.5H32.5866V39.5H34.4318V38.5ZM33.0866 39V30.2727H32.0866V39H33.0866ZM32.5866 30.7727H34.4318V29.7727H32.5866V30.7727ZM43.6502 33.3281V33.8281H44.2127L44.1468 33.2695L43.6502 33.3281ZM41.7837 33.3281L41.2886 33.398L41.3494 33.8281H41.7837V33.3281ZM41.5749 32.6847L41.1372 32.9264L41.1388 32.9292L41.5749 32.6847ZM41.1701 32.1989L40.8553 32.5873L40.8553 32.5873L41.1701 32.1989ZM40.5991 31.892L40.441 32.3664L40.4428 32.367L40.5991 31.892ZM38.7241 32.1222L38.9998 32.5393L39.0022 32.5376L38.7241 32.1222ZM37.9442 33.0938L38.4025 33.2937L38.403 33.2926L37.9442 33.0938ZM37.9442 36.2045L37.4859 36.4045L37.4871 36.407L37.9442 36.2045ZM38.7283 37.1634L38.4576 37.5837L38.4576 37.5837L38.7283 37.1634ZM40.5778 37.3892L40.4312 36.9112L40.4294 36.9117L40.5778 37.3892ZM41.1445 37.1037L41.4467 37.5021L41.451 37.4987L41.1445 37.1037ZM41.5536 36.6392L41.1266 36.379L41.1237 36.3839L41.5536 36.6392ZM41.7837 36.017L41.786 35.5171L41.3673 35.5151L41.2919 35.9271L41.7837 36.017ZM43.6502 36.0256L44.1466 36.0854L44.2138 35.5281L43.6525 35.5256L43.6502 36.0256ZM43.288 37.1847L42.8442 36.9543L42.8436 36.9556L43.288 37.1847ZM42.5167 38.1776L42.8517 38.5487L42.8519 38.5486L42.5167 38.1776ZM41.3661 38.8679L41.543 39.3356L41.5446 39.335L41.3661 38.8679ZM37.7738 38.5909L37.524 39.024L37.5249 39.0245L37.7738 38.5909ZM36.3249 37.0611L35.8827 37.2944L35.8835 37.2959L36.3249 37.0611ZM36.3335 32.2074L36.7741 32.4437L36.7741 32.4437L36.3335 32.2074ZM37.7908 30.6818L38.0383 31.1163L38.0398 31.1154L37.7908 30.6818ZM41.2681 30.3665L41.1119 30.8414L41.1128 30.8417L41.2681 30.3665ZM42.4229 30.9886L42.1074 31.3765L42.1094 31.3781L42.4229 30.9886ZM43.2411 31.9815L42.8005 32.2178L42.8018 32.2203L43.2411 31.9815ZM43.6502 32.8281H41.7837V33.8281H43.6502V32.8281ZM42.2788 33.2582C42.2372 32.9636 42.1503 32.6885 42.0111 32.4402L41.1388 32.9292C41.2098 33.0558 41.2621 33.2097 41.2886 33.398L42.2788 33.2582ZM42.0126 32.4429C41.8772 32.1977 41.701 31.9855 41.4849 31.8104L40.8553 32.5873C40.9688 32.6793 41.0625 32.791 41.1372 32.9264L42.0126 32.4429ZM41.4849 31.8104C41.2697 31.636 41.0247 31.5057 40.7553 31.4171L40.4428 32.367C40.6052 32.4204 40.741 32.4947 40.8553 32.5873L41.4849 31.8104ZM40.7572 31.4177C40.4877 31.3279 40.2022 31.2855 39.9045 31.2855V32.2855C40.1068 32.2855 40.2843 32.3142 40.441 32.3664L40.7572 31.4177ZM39.9045 31.2855C39.366 31.2855 38.8731 31.4207 38.4459 31.7067L39.0022 32.5376C39.2455 32.3748 39.5395 32.2855 39.9045 32.2855V31.2855ZM38.4484 31.705C38.0202 31.9881 37.7025 32.394 37.4855 32.8949L38.403 33.2926C38.5553 32.9412 38.7575 32.6994 38.9998 32.5393L38.4484 31.705ZM37.486 32.8938C37.2667 33.3965 37.1673 33.9828 37.1673 34.6364H38.1673C38.1673 34.0797 38.2525 33.6376 38.4025 33.2937L37.486 32.8938ZM37.1673 34.6364C37.1673 35.3048 37.266 35.9003 37.486 36.4045L38.4025 36.0046C38.2532 35.6622 38.1673 35.2123 38.1673 34.6364H37.1673ZM37.4871 36.407C37.7076 36.9049 38.0277 37.3068 38.4576 37.5837L38.9991 36.743C38.7585 36.588 38.5559 36.3508 38.4014 36.002L37.4871 36.407ZM38.4576 37.5837C38.8819 37.857 39.3657 37.9872 39.8917 37.9872V36.9872C39.537 36.9872 39.2453 36.9016 38.9991 36.743L38.4576 37.5837ZM39.8917 37.9872C40.1831 37.9872 40.4624 37.9487 40.7262 37.8667L40.4294 36.9117C40.2727 36.9604 40.0946 36.9872 39.8917 36.9872V37.9872ZM40.7244 37.8672C40.9892 37.786 41.2317 37.6652 41.4467 37.502L40.8423 36.7053C40.7279 36.7922 40.5925 36.8617 40.4312 36.9112L40.7244 37.8672ZM41.451 37.4987C41.666 37.3319 41.844 37.1294 41.9835 36.8945L41.1237 36.3839C41.0473 36.5126 40.9526 36.6198 40.838 36.7087L41.451 37.4987ZM41.9806 36.8994C42.1266 36.6597 42.2232 36.3935 42.2756 36.107L41.2919 35.9271C41.2591 36.1065 41.2022 36.255 41.1267 36.379L41.9806 36.8994ZM41.7815 36.517L43.6479 36.5256L43.6525 35.5256L41.786 35.5171L41.7815 36.517ZM43.1538 35.9657C43.113 36.3044 43.0109 36.6332 42.8442 36.9543L43.7318 37.415C43.9515 36.9918 44.0909 36.5478 44.1466 36.0854L43.1538 35.9657ZM42.8436 36.9556C42.6822 37.2687 42.463 37.5522 42.1815 37.8066L42.8519 38.5486C43.2181 38.2177 43.5132 37.8392 43.7324 37.4137L42.8436 36.9556ZM42.1817 37.8064C41.911 38.0507 41.582 38.2501 41.1876 38.4008L41.5446 39.335C42.0423 39.1448 42.4803 38.8839 42.8517 38.5487L42.1817 37.8064ZM41.1892 38.4002C40.8118 38.543 40.3718 38.6193 39.8619 38.6193V39.6193C40.4712 39.6193 41.0341 39.528 41.543 39.3356L41.1892 38.4002ZM39.8619 38.6193C39.1618 38.6193 38.5532 38.4618 38.0227 38.1573L37.5249 39.0245C38.2217 39.4246 39.0051 39.6193 39.8619 39.6193V38.6193ZM38.0236 38.1578C37.4999 37.8558 37.0808 37.4174 36.7664 36.8263L35.8835 37.2959C36.2793 38.04 36.8261 38.6215 37.524 39.024L38.0236 38.1578ZM36.7671 36.8277C36.4613 36.2482 36.2965 35.5244 36.2965 34.6364H35.2965C35.2965 35.6461 35.484 36.5387 35.8827 37.2944L36.7671 36.8277ZM36.2965 34.6364C36.2965 33.7464 36.4638 33.0223 36.7741 32.4437L35.8928 31.9711C35.4871 32.7277 35.2965 33.6229 35.2965 34.6364H36.2965ZM36.7741 32.4437C37.091 31.8527 37.5124 31.4158 38.0383 31.1163L37.5434 30.2473C36.842 30.6467 36.2918 31.2269 35.8928 31.9711L36.7741 32.4437ZM38.0398 31.1154C38.5713 30.8103 39.1746 30.6534 39.8619 30.6534V29.6534C39.015 29.6534 38.2376 29.8488 37.5419 30.2482L38.0398 31.1154ZM39.8619 30.6534C40.3204 30.6534 40.7358 30.7177 41.1119 30.8414L41.4243 29.8915C40.9368 29.7311 40.4147 29.6534 39.8619 29.6534V30.6534ZM41.1128 30.8417C41.4926 30.9658 41.8225 31.1447 42.1074 31.3765L42.7385 30.6008C42.3529 30.2871 41.913 30.0512 41.4234 29.8912L41.1128 30.8417ZM42.1094 31.3781C42.3906 31.6045 42.6208 31.8828 42.8005 32.2178L43.6818 31.7452C43.441 31.2962 43.1257 30.9125 42.7365 30.5992L42.1094 31.3781ZM42.8018 32.2203C42.9805 32.5491 43.1004 32.9353 43.1537 33.3867L44.1468 33.2695C44.0807 32.7095 43.9278 32.198 43.6804 31.7428L42.8018 32.2203ZM44.9734 39H44.4734V39.5H44.9734V39ZM44.9734 30.2727V29.7727H44.4734V30.2727H44.9734ZM50.854 30.2727H51.354V29.7727H50.854V30.2727ZM50.854 31.794V32.294H51.354V31.794H50.854ZM46.8185 31.794V31.294H46.3185V31.794H46.8185ZM46.8185 33.8736H46.3185V34.3736H46.8185V33.8736ZM50.5515 33.8736H51.0515V33.3736H50.5515V33.8736ZM50.5515 35.3949V35.8949H51.0515V35.3949H50.5515ZM46.8185 35.3949V34.8949H46.3185V35.3949H46.8185ZM46.8185 37.4787H46.3185V37.9787H46.8185V37.4787ZM50.8711 37.4787H51.3711V36.9787H50.8711V37.4787ZM50.8711 39V39.5H51.3711V39H50.8711ZM45.4734 39V30.2727H44.4734V39H45.4734ZM44.9734 30.7727H50.854V29.7727H44.9734V30.7727ZM50.354 30.2727V31.794H51.354V30.2727H50.354ZM50.854 31.294H46.8185V32.294H50.854V31.294ZM46.3185 31.794V33.8736H47.3185V31.794H46.3185ZM46.8185 34.3736H50.5515V33.3736H46.8185V34.3736ZM50.0515 33.8736V35.3949H51.0515V33.8736H50.0515ZM50.5515 34.8949H46.8185V35.8949H50.5515V34.8949ZM46.3185 35.3949V37.4787H47.3185V35.3949H46.3185ZM46.8185 37.9787H50.8711V36.9787H46.8185V37.9787ZM50.3711 37.4787V39H51.3711V37.4787H50.3711ZM50.8711 38.5H44.9734V39.5H50.8711V38.5ZM57.0554 32.7827L56.5578 32.832L56.6025 33.2827H57.0554V32.7827ZM54.8011 31.8239L54.9857 32.2886L54.9912 32.2863L54.8011 31.8239ZM54.3239 32.169L53.9238 31.869L53.9202 31.874L54.3239 32.169ZM54.1619 32.6719L54.6616 32.69L54.6619 32.681V32.6719H54.1619ZM54.2599 33.081L53.833 33.3413L53.8377 33.3487L54.2599 33.081ZM54.5625 33.3835L54.2851 33.7996L54.2916 33.8038L54.5625 33.3835ZM55.0057 33.6009L54.831 34.0694L54.838 34.0719L55.0057 33.6009ZM55.5426 33.7543L55.6589 33.2679L55.6518 33.2663L55.5426 33.7543ZM56.3267 33.9418L56.2104 34.4281L56.2175 34.4297L56.3267 33.9418ZM57.375 34.2827L57.1712 34.7392L57.1712 34.7392L57.375 34.2827ZM58.2017 34.8068L58.5342 34.4334L58.5342 34.4334L58.2017 34.8068ZM58.7429 35.5398L58.2877 35.7467L58.2895 35.7505L58.7429 35.5398ZM58.9432 36.5071L59.4432 36.5098L59.4432 36.5032L58.9432 36.5071ZM58.5341 37.8963L58.1222 37.6128L58.1218 37.6134L58.5341 37.8963ZM57.375 38.804L57.5701 39.2644L57.5713 39.2638L57.375 38.804ZM53.7145 38.7997L53.5227 39.2615L53.5236 39.2618L53.7145 38.7997ZM52.4957 37.8409L52.0823 38.1221L52.0844 38.1252L52.4957 37.8409ZM52.0398 36.2599V35.7599H51.5283L51.5399 36.2713L52.0398 36.2599ZM53.8253 36.2599L54.3241 36.226L54.2925 35.7599H53.8253V36.2599ZM54.0767 36.9929L53.6773 37.2939L53.6823 37.3003L54.0767 36.9929ZM54.6776 37.4318L54.4928 37.8965L54.4991 37.8989L54.6776 37.4318ZM56.348 37.4403L56.1662 36.9745L56.1643 36.9753L56.348 37.4403ZM56.8892 37.0611L57.2816 37.3709L57.2816 37.3709L56.8892 37.0611ZM56.9062 36.0085L56.5255 36.3326L56.5295 36.3372L56.9062 36.0085ZM56.4034 35.6676L56.2064 36.1272L56.2086 36.1281L56.4034 35.6676ZM55.598 35.4119L55.4762 35.8969L55.4808 35.898L55.598 35.4119ZM54.6477 35.1733L54.7695 34.6883L54.7659 34.6875L54.6477 35.1733ZM52.9048 34.3338L52.5717 34.7067L52.5717 34.7067L52.9048 34.3338ZM52.2699 32.7955L52.7699 32.7977L52.7699 32.7928L52.2699 32.7955ZM52.6918 31.4105L52.2873 31.1166L52.2859 31.1185L52.6918 31.4105ZM57.2727 30.4858L57.0642 30.9402L57.0652 30.9407L57.2727 30.4858ZM58.4062 31.4105L57.9935 31.6926L57.9935 31.6926L58.4062 31.4105ZM58.8239 32.7827V33.2827H59.3321L59.3238 32.7745L58.8239 32.7827ZM57.553 32.7333C57.5061 32.2607 57.2949 31.8601 56.9129 31.5789L56.32 32.3842C56.4551 32.4836 56.5365 32.6172 56.5578 32.832L57.553 32.7333ZM56.9129 31.5789C56.5412 31.3052 56.0741 31.196 55.5639 31.196V32.196C55.9402 32.196 56.1747 32.2771 56.32 32.3842L56.9129 31.5789ZM55.5639 31.196C55.2187 31.196 54.8956 31.2445 54.6111 31.3614L54.9912 32.2863C55.1214 32.2328 55.3069 32.196 55.5639 32.196V31.196ZM54.6165 31.3592C54.3415 31.4685 54.1004 31.6336 53.9239 31.869L54.7239 32.469C54.7689 32.409 54.846 32.344 54.9857 32.2885L54.6165 31.3592ZM53.9202 31.874C53.748 32.1096 53.6619 32.3811 53.6619 32.6719H54.6619C54.6619 32.5876 54.6838 32.5239 54.7276 32.464L53.9202 31.874ZM53.6623 32.6537C53.6536 32.8932 53.7038 33.1294 53.833 33.3413L54.6868 32.8207C54.674 32.7996 54.6589 32.7631 54.6616 32.69L53.6623 32.6537ZM53.8377 33.3487C53.953 33.5306 54.1058 33.68 54.2851 33.7995L54.8399 32.9675C54.7635 32.9166 54.7146 32.8643 54.6822 32.8132L53.8377 33.3487ZM54.2916 33.8038C54.4545 33.9087 54.6354 33.9964 54.831 34.0693L55.1804 33.1324C55.0407 33.0803 54.9262 33.0231 54.8334 32.9632L54.2916 33.8038ZM54.838 34.0719C55.0265 34.139 55.2251 34.1956 55.4334 34.2422L55.6518 33.2663C55.4794 33.2277 55.3201 33.182 55.1733 33.1298L54.838 34.0719ZM55.4263 34.2406L56.2104 34.4281L56.443 33.4555L55.6589 33.268L55.4263 34.2406ZM56.2175 34.4297C56.5695 34.5085 56.8868 34.6123 57.1712 34.7392L57.5788 33.8261C57.2269 33.669 56.8453 33.5455 56.4359 33.4538L56.2175 34.4297ZM57.1712 34.7392C57.4479 34.8628 57.6788 35.0108 57.8692 35.1803L58.5342 34.4334C58.2587 34.1881 57.9385 33.9867 57.5788 33.8261L57.1712 34.7392ZM57.8692 35.1803C58.0506 35.3418 58.189 35.5295 58.2877 35.7467L59.1981 35.3329C59.0411 34.9875 58.8187 34.6866 58.5342 34.4334L57.8692 35.1803ZM58.2895 35.7505C58.3853 35.9567 58.4408 36.2066 58.4432 36.511L59.4432 36.5032C59.4399 36.0803 59.3619 35.6854 59.1963 35.3291L58.2895 35.7505ZM58.4432 36.5044C58.4408 36.9509 58.3284 37.3133 58.1222 37.6128L58.9459 38.1798C59.2795 37.6952 59.4399 37.1315 59.4432 36.5098L58.4432 36.5044ZM58.1218 37.6134C57.9168 37.9121 57.6117 38.1592 57.1787 38.3441L57.5713 39.2638C58.1497 39.0169 58.6172 38.6589 58.9464 38.1792L58.1218 37.6134ZM57.1799 38.3436C56.7543 38.5239 56.2178 38.6236 55.5554 38.6236V39.6236C56.3134 39.6236 56.99 39.5102 57.5701 39.2644L57.1799 38.3436ZM55.5554 38.6236C54.9008 38.6236 54.3547 38.5232 53.9054 38.3376L53.5236 39.2618C54.1198 39.5081 54.8009 39.6236 55.5554 39.6236V38.6236ZM53.9063 38.338C53.4664 38.1553 53.1399 37.8935 52.907 37.5566L52.0844 38.1252C52.4368 38.6349 52.9228 39.0123 53.5227 39.2615L53.9063 38.338ZM52.9092 37.5598C52.6845 37.2293 52.5521 36.8013 52.5396 36.2486L51.5399 36.2713C51.5558 36.9743 51.7275 37.6003 52.0823 38.1221L52.9092 37.5598ZM52.0398 36.7599H53.8253V35.7599H52.0398V36.7599ZM53.3264 36.2938C53.3516 36.6641 53.4607 37.0063 53.6774 37.2938L54.476 36.692C54.3972 36.5874 54.3387 36.441 54.3241 36.226L53.3264 36.2938ZM53.6823 37.3003C53.8928 37.5703 54.1685 37.7675 54.4928 37.8964L54.8623 36.9672C54.6866 36.8973 54.5617 36.8018 54.4711 36.6855L53.6823 37.3003ZM54.4991 37.8989C54.818 38.0207 55.1654 38.0767 55.5341 38.0767V37.0767C55.2664 37.0767 55.0428 37.0361 54.856 36.9647L54.4991 37.8989ZM55.5341 38.0767C55.8936 38.0767 56.23 38.0246 56.5317 37.9054L56.1643 36.9753C56.0058 37.0379 55.7996 37.0767 55.5341 37.0767V38.0767ZM56.5298 37.9061C56.828 37.7897 57.0881 37.6161 57.2816 37.3709L56.4968 36.7513C56.4346 36.83 56.3339 36.9091 56.1662 36.9746L56.5298 37.9061ZM57.2816 37.3709C57.4806 37.1189 57.581 36.8232 57.581 36.5028H56.581C56.581 36.603 56.5535 36.6794 56.4968 36.7513L57.2816 37.3709ZM57.581 36.5028C57.581 36.1998 57.4876 35.9143 57.283 35.6798L56.5295 36.3372C56.5579 36.3698 56.581 36.4139 56.581 36.5028H57.581ZM57.287 35.6845C57.1077 35.4737 56.8663 35.3205 56.5982 35.2071L56.2086 36.1281C56.3837 36.2022 56.4776 36.2763 56.5255 36.3326L57.287 35.6845ZM56.6004 35.208C56.3483 35.1 56.0513 35.0069 55.7152 34.9259L55.4808 35.898C55.7811 35.9704 56.021 36.0477 56.2064 36.1272L56.6004 35.208ZM55.7198 34.927L54.7695 34.6884L54.5259 35.6582L55.4762 35.8969L55.7198 34.927ZM54.7659 34.6875C54.0849 34.5218 53.5861 34.272 53.2379 33.9609L52.5717 34.7067C53.0758 35.157 53.7389 35.4668 54.5296 35.6591L54.7659 34.6875ZM53.2379 33.9609C52.9329 33.6885 52.7676 33.3199 52.7699 32.7977L51.7699 32.7933C51.7665 33.5608 52.0244 34.2178 52.5717 34.7067L53.2379 33.9609ZM52.7699 32.7928C52.7676 32.3604 52.8807 32.0041 53.0976 31.7025L52.2859 31.1185C51.9347 31.6067 51.7665 32.1736 51.7699 32.7981L52.7699 32.7928ZM53.0963 31.7044C53.3254 31.3891 53.6453 31.1332 54.0747 30.9429L53.6696 30.0287C53.099 30.2816 52.632 30.6422 52.2873 31.1166L53.0963 31.7044ZM54.0747 30.9429C54.5014 30.7538 54.9988 30.6534 55.5767 30.6534V29.6534C54.8819 29.6534 54.243 29.7746 53.6696 30.0287L54.0747 30.9429ZM55.5767 30.6534C56.1679 30.6534 56.6594 30.7545 57.0642 30.9402L57.4812 30.0313C56.9202 29.7739 56.281 29.6534 55.5767 29.6534V30.6534ZM57.0652 30.9407C57.478 31.129 57.7808 31.3815 57.9935 31.6926L58.819 31.1284C58.4919 30.6498 58.039 30.2858 57.4802 30.0309L57.0652 30.9407ZM57.9935 31.6926C58.2033 31.9997 58.3169 32.36 58.3239 32.7909L59.3238 32.7745C59.3138 32.1656 59.149 31.6111 58.819 31.1284L57.9935 31.6926ZM58.8239 32.2827H57.0554V33.2827H58.8239V32.2827Z" fill="#1F343A"/>
</svg>
